<mxfile host="app.diagrams.net" modified="2022-07-12T06:51:10.316Z" agent="5.0 (Macintosh; Intel Mac OS X 10_15_7) AppleWebKit/537.36 (KHTML, like Gecko) Chrome/103.0.0.0 Safari/537.36" etag="TBcA5OL6gHFGcFzxceL6" version="20.0.4" type="github">
  <diagram id="bt5wakimaTCAVWJEaTUh" name="Page-1">
    <mxGraphModel dx="1341" dy="688" grid="0" gridSize="10" guides="1" tooltips="1" connect="1" arrows="1" fold="1" page="1" pageScale="1" pageWidth="1169" pageHeight="827" math="0" shadow="0">
      <root>
        <mxCell id="0" />
        <mxCell id="1" parent="0" />
        <mxCell id="4VljcWicfZ3Y40dabnpL-6" value="" style="rounded=1;whiteSpace=wrap;html=1;flipH=1;" vertex="1" parent="1">
          <mxGeometry x="19" y="307" width="382" height="209" as="geometry" />
        </mxCell>
        <mxCell id="4VljcWicfZ3Y40dabnpL-9" value="" style="shape=image;verticalLabelPosition=bottom;labelBackgroundColor=default;verticalAlign=top;aspect=fixed;imageAspect=0;image=data:image/png,iVBORw0KGgoAAAANSUhEUgAAAM0AAAD2CAMAAABC3/M1AAAB71BMVEX///+/AAAAmTn/zAAAicz/ZgAzMzMPdQQc0wZrAAH8AAcwMDApKSksLCwMXof/ygBKodbRbGz/4G/l5eWtra24uLg3Nzf39/fs7OwYGBjh8Ob/YQAAn0Nra2tKSkrR0dEfHx+abGx85HKGhob9bG1PgaBfX189PT3CwsIAhMpzc3MAis3X19d8fHwAlzLc3NyhoaFVVVWUlJT//O//6uFhYWH/bwCmpqbs9vv/9MX/2V/9//+g0ev/9/IDoDPgiYnrt7fOVFTwxMRZrNv/++r/5Y7/11Amdq/2OwX7tQCbAAHIAAH/77eGAAHrAAX/4n7B4vIllND/6qMXyBT/dyYMfRP/x6z/l2D/3Mj/7+M1qVz03Nzpra3y09PJIyPdlZXILy/MSUnbdXXDFhbLTEyRw+R6td6DTl2qAADV7PdWKD/uYSX9xjVgIDD/9dhkGCT/1TJUNE1MR2r7fARLV4H2kAIyaJv5MAb4qgBiAACKhpq9bGznbGz9WFv8RkhzxQDlygWNyQq3yArVyAhVyA5FYHJ1xTTZZyS0Z04EribLZjmEx5inaj07YoFmg5z/iEP/soZjv4Ob1rHF6NL/0rz/oXiv38CbvZg7ijV1rG//u6L/llV5rHXtcyFLbwBpdwyqcgz/gzOMcwpHeAu7bwfTN1GYAAATQUlEQVR4nO2di3fb1n3HacmkZQOIZPMBUhRJNNwImhKfNkXFNCs/5a1OYilW9LSjPCp16rbU3btdt7RN2s5TN0uW7LVS29Td/tAB914AFxcXwCUIElSOvufknAgkgPu5v8f9/S7AJBQ605nONGTqdDqbt55szc/Pbz25tdnpiEEPyLM2n96Zv/3ROVwf3d668/R60APrXp1bWwSJTnR561Yn6OF1pc35259RUTQTzZ8enqe3HUg0Xd4MephM2vwJA8sp4dncokcLTR9vDTnPrU+YWVTdvhP0gB0kftoVi6r5oMdsq6fdGQaZZ0i97cnHHmDOnfvkVtADp+mJJxZFn90KeuhWbXmFUXCeBD14Uj3AKBoynN5ghsw6t3qDUXCGaOF56i2b4fp4aBL15ic9wyjrzpBU1R4qAJrmh6Mv9bzQEBqK0BF9gjn3UdAkqljbGXd9GjRKKHTHN5hznz0NGqZz2T+ac58GnQjuOO1mdKuPAk4Evpom8CztY9QABRs5/iychgJtrH1bazR9FiSNX2WAoSDzwCe+09wODua6n+kZKsDyxn9HC7Jtm/efJrisJt7uA83loGg87W266btBtdR32B8HsOvjoAKnD0lgkDuf7TlN7b7RDGancG5x8eb2zt27dyeUf3a2by4u7va4JWijLXC7a9fuff75vXvXrvlP0l7c3plYmr6Ka3pp4nvf+at+0Nx754P7j67cuLGwsHDjypVH9z94x0+k3Z2laYXkPKkH37948b3v+Mzy8P2//ptRQs+eLTx6xw+S9tziBAVE1fSDv72o6Efv+Waghw/fv3Tp0l/8JUmjaHx89P7nvZpo9+YEHQXQ/OAiki8e9/B9lcWGRgUaXXj38x5Y5m5OnLeFwWl8cDiNxZ5G1cL9e15hFp1YdE/TeHozj4biQqPE0AfeDLNjEy8GzfcxGiV+ejDMJUxpR5rR8WceEsKufcDoND+8aJJX8zx8H4e5FB53pFHUrbu1by65wZyfPv93Fwl5ih4C5tLfu8GMjt/ozjzb024sKs4/kDQXPXgbwcJCo0TPu11Y5q6rYWxousexwFz6RwYaxdtYYebYYKg0XeKQXsZOM/6IbS2d22FiUWj+6Qc94tBg/vlfmGhGR9lwWGGUNPBDCs3F9x724GZKgmaEYcPZZnMzUEbTaH7EvvDQYC6FmWnGH7nC3GSBuTo9oXY5d3/8Lar+9TKTfvJnVv3bv7OFDcRxSwW7SwwsS9uLu3NtVSye243Ezafv3n/munzqck7Uc3cZYHZ2facw6d59ZpxnTkV1myFort7sKwrQu8zGueFQ5OwyxMx2/2G6wBl3KKndl82rO/31Mk33ma1j62sM+WxpcSAwoWvPWI1zw+YKcxPuQbMzGBjFOMyZwCav3XQvnKcHZBrFOMw0C9SSgKXYXJobFE2IFcbGOIsMPc3SYHKAqgVmmisU47R3GGqaiYHBhK6wVwSUTnSOpd0cShpa9clUbg4lzeio1dXc0/PQ0oxb8sAcU1sznDSjC+TJTI42rDSj5MksGW1oacaJrNZmCpthpSH3o1h6ziGmIUrPxdNNs2Bu2hgqzmGmIZ4bbDPBDC0NUXky7qINLY25of5G0TAV0MNMY0rRp53GvOs5942iOfW2MbU4p57GXNqc8pz2zaIhys7TXguYV89TXqcRNKe8hibqtFPe3xBPpU5570n0N6d7X4DsPU/5ng35cPpU76eRezahEFMaGFIay37aqd6Htux1nuJnBJR9aLaX0oaThvKMILR4Wmmobw+xPPccShraszWmynMoaWjPPZneFxhKGrsXBlxdbZA0rDD09wUUub7RPUCat7/4aU+mUfoCt8gZJM3Y2BdfurPYvmfD8H7aYGnGHv/M3T4O79u5ZOmrA6YZG/vqZy6mcfzJh2NHPX3+zwfFotEo7uZoHnp21nXTgebBWwHQjD3+uT2M43udquxD58FbgdCMjdl7m+uPI+w2cacVmIBo7HCcgwaK+rxgWrVMYDQ2wcP0Ow8qDoAJjGbsKwoO449WKDgQJjiasS8sMI9Yf+9F4kwjmABpyNgZv8/+W9b29vRVCkyQNAQO82+jgLDfFBowgdKMYetON79bA5rbQT8rnD7/1nDQPP5S87Ib3f/CuL2IzPNgSGjGvoIs7PFv0tz21au4nwVNA0JnfMHzj/PntpcwPwucZuxLr7+TRtr98S+GiOaXXeRlmo5mf/UfmSGhefx86rCna3ZW0+Hw8q/+MxM4zePn366MVPZ6evX/aDaMNPvrzC/+67/9Gqu73iZQRqAme7hk51U6jCn9wrfBuurtx0jPnz+vjGiq7PVwybVwOCiag28DjRCq9GCc/XRwNBUSBNK89H7JWbNtwi8G9x9x3rCh2fB8xaM0QbO85uN4HdWeosKMjHhP0qskTXjFzxE7aZJuml7ywDIJk341KFfbs6U58LjkrFlowrNH/g7aTod2jjYysuHR1fYtMEpWG8j/w0q0yWhAr71d85UlbBSc1QH4WtvWz0Y85+iONQmA0Fn3eewWtQ/sWUa81mrXX9BowunlY7+Hb9Zrm6VGTwOeygFKEoA46dn9tetI3fpde9JFexsVRxglDXiiOSIrARwoPQu03GWOm/yf34xMOajihqLKE82KLQyW4roKIoXlwocMw3WWt8JzhRo2RErohuW3v7lw4cKHvcKMVDwtOAw0YWZHa0/+9gKQD7bxRHPsTrPMmATah7/78IJvNJ6WT3ea9AnblQyWoaZhKqlhvARNwxA37o6mx4uPNP3JAu6OJh7+7sIF32n6s964OtoaFi9B0zjUAlCzzt3B2urv/2CB8WG9mfJWp71xMY1jc7D2Qil/vu4DTcVbnbZOr6ENGvtaurO2GlZP7guNtxqa3t8Ysq04O0evwvBUCk3vYeNxL5rWe2KmObGpOFdWZ7UT/9iPJOCxk3ZOaul96klHSrwYX+pHEvC4y7Fu064hURytY2bpB43HJKDIMQ1YK871ldU0cYYlcHwIG48w5Ka62dEshcDKSdjy/d+Ty2evMCMjnrfV151oiEJg5Y2VRVlg/Q8b74883jjgmLBXlkkfQyKyWu+OduAZxqHwxB1tfeWFDQvpakG10VDXbbOa4WidfUq86Jr92l/TTPXyGNc2D2gVZ+eYGi+G/ugvjcelE2rNJnJQxbl+PGvrY5q+9tHRvC82jsYBFef1FacsYTWOD1VND089VdlEzvJaaH3fPvZNGh7T2Bgnvbq+v+wcL4b0tNYrjOdHN5io3rS8zIii6k9DsNZoWnNrqN2N87/+rDU9vZaiifLAsEv931CkACi3HpRBfwqw5yTltkHAoD8EtR1A0dpsjzjpfaeHzEwwXh+sU7TSWyZQKofJXnH8g2F6zuYAo+6HTDo/m3UzTe8rDa5j786mLLXqFXrAqUz5C6M6m0ccfUvUs7P5GTOajrpZ/jEY40UjjziVHt+0pWvtpHucdPgY29oRnd44sYXxLTUT2mcrmjGYN8TreYdTXfJUpl727b8XvvKiK5Zl6+tskwfd8FRGDvrhZZrW99mTQXqVtu3ePmSPnsrGyz55mSYlelh40unZY5vHO5N7I0w8FSVi+v9fpV87CbsBpdPLK/aPqtqTL6fc3qdRPh8EC+B59cJhdyMdXl51YIFAewcO7zpVKlMbe332MVzrK6/e0Cykvhy1eszynnH78OUG1ULKsY291wNkUdW5vnZ8oljIpPCbV0drzK9FTR6+PlDf4TJp6uDl4YBcjFCns752/Gr15MWbNycnq/sr1ztdv3wnipOv9w4ONhQdHOwpIKL///+mM53pTGc605nOdKYznakPilaTxJFkNGo5ZPkSRWI0Kvo1KsfbVKvWEcKPas16qWg6Ei8V6uW46VvxUj1TdBtpNF8v1Bygo8WYSfF4cUa/5kw8Rlc8Z75IvFZu1uuFZrkWr1puUeMFji9EsSOtCM9xfAInnEnwHC8XyXPNEvM8Jwhx289zdZnjDQkcl5DrpRjkiWcjAk9VJJvHWBqFBDiVU76dqDeixD04LhKJ8NgYqgn1SEQoYLNc4tUv5Z2Nk5SVE/my7ZfqPLgwJnVQXBbMvSxE7MSlZrT5qskCh12EE+SW+XbqOE0DrUnwmwmMEIzDYaBAUfVEoWnnajmZhIESJMXmyQj9QyAJjSTalCzzIWVM98uqX+DqhskK6Ay+YYwzBQ+40Kjf4gp2NPEEmk8gzphjTlbmPutkGxgf1SavTQBwVDTMDO5tZWgcPaCSknaK8bUYOMbbhwQ7DZdtZlQVslkuhUYnKEYvRlISEhwmx6M/U1INXj4joA/4TL6Rz0TQF4Uydse4hBtTG7k2ZVB5HvxtTi7eaPh8UtRULUMDcWp+EatFqHgdeItcQ3/n4AVFOO0RQa4lVR8RkzUUa3zMuEkS2qas/Z3RTW4QAucTmmQC8UaDu2scxhKafTQgMAIuO0OcnoJDLxhpeaYuwMkwbinCqchqfxqxqkd9FcQWjyVKv2hCZTAeoYSdpNGYPQGNS6jja8wMmgzDOCJwo0gK3SSn5mcuq1qDk9ExOIOcaQJzsVYrVjQtXzhNtGhaGm1p4uDmpkRIp4mBL3IR85qHTs9gR2DgoK/VwMDzDfVrEjJ2TdCcGylXysrq2ORsM2YMzqABnydkuY5nQSrNDBykOw0MADKtwmDi6tgFZdyPSuCsXFGI6DlaO0W7Y66Q4lH4coJkzBaiEZN5CXyuJGFeiOu3p9IUeTZPy8GFxJKIwHEJLxbA2UIT/FGtAxeD30LBFG1yuDnjCdPSwEk1Eadp5poS9imnfUqnaVinnEoT4yzU6IOIJJnqMph/s+CLRdVQysCTwEY8OAYXcR6FTRGu2oIkCBJvGjCkydZ5sCagMoaLaJmRRgOnPGIq7qg0DWjDRoiUmGvFTLm2hRmxBgqyFpo0uF5Cb0jBq8/AFMiXcsnkTB4sYFwiZ9Co4+ckudFq1OHqxiWSZhps3I0sJVHRaJJosWlZaCxCPqnOPTSJlET3FtRbi3BeJDgV0JBaDQdjToB2RTTKQGAoFeFYtaVMqwXKUKVCJMWj6DMVGTQaGA2cWxUPTi/oaaAqg3BRnCGpDkVoqv/WxOIKep2kW7wYMRKiZhs9VIsws6PFTa/T9IYAwfM183AoNNUCPQnQBJYwQS1Gi7zuDCoDuGQygYVNDdY4uu/DfAczBKIxBifCGI/EcBpCnJSNhUyi0qBqh6gPqIJDVE+HywyYafCvnHKnHEhRsMcQwZ1w3werGsdhNJIR5tCHhbwtjZCKWBouJxprs2kVWsLiIRHmZXDOTAploAaW8mBRJ2HuixJeUqcxKj4NXiiJZhpOL+dLFNehxk2B3TahCPIlMB4eVdjqQU5J5QVgDlizVeGAYzldLVjDRXUaCXecPAy5qEHDNWutWqOchROYpTQZTlmAJW5g2aB0GaAb0PxeTW9q8uWxMRbhwqi1HopgWuJFgwa/IwgcDpa9eIYWZ2DK5SRzBrCjQRk6YYUX440awVhDpQsA0NIgqN/4GIqGonHMEsgcDwol+M0U7tuw6qubaGBYJfPa0stCg1ZP65eVIoHnCZNVYW8JVg9OqxOiIILLiBSOEdkmYZYMXcmWpoB5ml4LJGEzwAlESrOpbCJkTKKRqy0OXzcdE2HuKYEVUzsjCXN0Ad/gyIEBCzV87yuu9QV2nobqfbKygXlKryScadAKXyfTQAzGk5kGuaXJmqgGSMDxmwZMTy0op+FzXbbkNKxOQ24r1M1VPpUGZkewYlC+a7aNsRmAT1Uc21VB4QdXUol0DpwGb51gYjWtN3jVWYCLq2SuJR27tbp5dYrzRmYxlDNCOqsfhAUmPIguIoJtQqGAnytm5AIWN6DK04YQwSbUSlPVNjlMA6fThGDTzGfwY+gCpK9EtU00PNDEktbIGPMNJwOPjWid56QSRsOX9MgoQK/G6zRTR1BD2zCmbUcbGnjniIS1OKifMG6oDTyvbbzh63xDozE2CqNwgHofqjSiglaSajV0pAE/rZagH5RCdjTRJtp0wWtjGxroFuq9YmC/IZlryJz1bKCWPnCsuytq+zeYLVrAuFwJGlesgT3KVAyn4RKl1kx1plVHszljSxOKwT1v00EbGsXxEQ5XL+Xz+UwWlUeCdQtWGzgewyhxR7TeBh5Di7hcahVjSrcF8ndBNGhkpSISIrIso4pfj3FqJ11CxsEWKTsaxbHQlHOmnVvSz0JaE4PvCKrSthdNiBlQzChX1MoaAW3YwV31DJhvfZvZaOXhhPHmBBaFfTl+WxiuXN1aL+doTxksC6oqVDpkTRkwl7LEklqTJHjsegJfRvdFTzxCsaz+OceX9QtGYZ9KNMPwiYS5VAV5s0nZwq+WEyYepaRqUb6m9po8xwnkvfIptcsnntuIxZIkqa2j+khIasa1yRfLknJEmeVcBmxBcYKUaCVNF1NuT0w5OIk3NS65hHLxFHVNE4t5ToJtq3LvlFyza3jUKa+TNaoS5bzcsGz7iNFWqS7zgtys4fuZ0TIvg0GIOaXk5+VMzHSm2EiYH+LB+zZkPmOOEcWjZPoCrW6mx/NNWUGSC/kiw6PYM53pTE76f2KK1YzZydn+AAAAAElFTkSuQmCC;" vertex="1" parent="1">
          <mxGeometry x="533" y="138" width="81.94" height="98.33" as="geometry" />
        </mxCell>
        <mxCell id="4VljcWicfZ3Y40dabnpL-10" value="" style="shape=image;verticalLabelPosition=bottom;labelBackgroundColor=default;verticalAlign=top;aspect=fixed;imageAspect=0;image=data:image/png,iVBORw0KGgoAAAANSUhEUgAAAOEAAADhCAMAAAAJbSJIAAAAflBMVEX///8AAAAkJCTJycl5eXmkpKT8/Pzx8fFhYWGxsbGfn5/39/eHh4ff39/09PTs7OzY2Njk5OS9vb0UFBTDw8MMDAxzc3OZmZlMTEyNjY0/Pz8bGxtkZGSrq6vQ0NAyMjI2NjZXV1crKytHR0d+fn5TU1Nra2saGhqLi4tCQkJFf2iMAAAJhElEQVR4nO2c6XqyOhCABZRNkFWxLiiotL3/GzxkJoFg2Wxt1e/M+6NPq4AzyWS2xE4mBEEQBEEQBEEQBEEQBEEQBEEQBEEQBEEQBEEQBEEQBEEQBEEQBEEQBEEQBEEQBEHciu65buhc1IhxXCWaGxiPlumeuPuPi3KFWuzjf0VJe7e5Vg/Zrs/+o4X7MQtt3a6d4KC99kSGRb9+jGw2f7SY38Yzo2EFmY7hoyX9HsabrEV+KZyZ5i5Kvd3YdopNQ/lj8Ghpv4Gf1Qosp1a6aL4dhDPZvUa2/hgxv0+YV9KrM7d1pXmuPMvZa6mon6vJMeO+C5NTpeLhlSKH4QixT/HA1Hh2FSyPvWPxVMxXQmjbG77aq4YjSn9ftrugCxfyOdJDpp9Cx9cIG3MxJ6vR2UogEoOD9puS3QubS+vc4BznQkX19+S6G3su69ttt4lxyZ4+hXOFgmNnkJuyLkbG/jXR7sPcRDmLsQqGlf/k4T9yf0m0O5FwWxt5uZ6YX+6NfkWwe+FvQcj1iDDImE9zKaAId/PUdorlbjQyOfEKZSb/PX/+9G1/0yRoW2XafMW/Pc78LQtMZjbjrg7LS6+sWf+AByyf1tmEOAXj8hLmV/bXLwZHeML57qLdB2M33sYMVjWtvkZ3Cwdp0XLLE4CraDtmCv1Tl0f5VkL0VzijQ2GcdzqkGTzk8tNJNPySu/cpcfiHI4WOoX3d+qYHyi9/WkZBmvtlmQ/i9/bhU9Rw8CnGFKuI9qjH3Wlys3BNwBSsW++KmXPoNh9szUw73+cseGemS4dwyd41f2hh39PQ7E9XMhB8KB+JMa9Tdl0e18MR+GFIHKOh4dvr5qKCsqFzgfgQyoZauzZXsEeD3Q1BtZMxGrL1oDY+hwX0Xaf1oHVN+wvYqkHaEw7wmo9+6YYYo+H0i4aTdGZ1Lw/MSXvdl5sJBc2eaKDBFSNTvy6+qWEv9qCX96vOqNrXNpx3+OS5pmm+NDKBFmradWLrlhexBdChoa9ZsSY8wHlAEleLNcmt6BDv+4Ykrvv8TvdVExFXr170nEuuqof1lIsUF59qpKonR9LRPWcbVc032V7S0DNLLpBdxOZRVbaqyabBzXZMnuV6Z2bVSNiZaRZcqbB81lY9mokYkAU4iE2nA9GlPYq8V8EJTnVzPWjVzSv2pyHtKr/xpe8V0jW1hjCuRfP9jS4KNaBKrpjdYtaZHuu3edveg+L31FXcByvpiQO2j5I0wk6qVjezCQgapwIcUNGXNputWkPIn3bsCvTRKLmjd2oIZqgpMuhcPBjVzvZFmSe6JakWWrNwoPjArEYOVGgAVnm/yax3AcMV7X3/rZYAZ/UzsROzLE2EhjHz8GtDqJq4QQDLKfYu3EpNs96gFRq60IT/DN0UhgWbYx4MzvoeyW4iDRwSMGHqAAN16BF+halgFTOkgsdq4rmG0DfK2YhqW0W4HqZiZrR5Gq4h+hQsUsGBHkDDvNdKbwHLC7mD49afyICP4qKBMMnEZQN8SJvPsKBvdAK12bCd8L2AzavbFi34KwEbjSVa2gLyHDaJOIdj92J6sb/O4btYVgwIJxm3FpjEDVbOkosGDUP2pHcwdy9TqnwMqm+tR0NYhVP5SSyJxnV4HEhL48wUZJ39KlyHcmTV+WbPR8AG1pIHwAOng1MpLREmV3TZVusZrEB8uIoyd2q4EtPGSJnF7CbCl+b9O4CB5OTPnUsWq6vGR7vceS8d9yqao9dB/yvdwK6BNJI3VVzlimmPhpVhgszM67C+NcbDbX/9K8XEfbdDxVDQtHdPpAsHo6nhHMZjfmrRkA9K3KrheUDDqt8XnLiG3JB6U8Gwen7vPiFecv1qvMPzKWt9JlvpAmZP37VqmMGo+0LDYlqx6luHjTl0md3t6mf2Zd6L6ghN1lv9tWtY6ugwu4tiVolXBXRwUFiSBOW3JC1Ic8EjPZnQ8MpJdGrYeFgYKdyPYx+wr0lW7ddnvX0mzDZaa4sEB5H9FHEJri5Qo9WVhvuJB6G7DDzwy6r5NLtLwxSfKT0J3J4GiVXWHRAtsTAGmv49jZoFygsmiU/RDzg5+On1TWKtamwGopAPTnNt1LJPrCXoKuLhsZ5xX60MCrsPUWdA9MTJmaFmHO5ANpzywsKbLJQJZ5klfwYYFOssYzLrlOVU4O+92huB4ZSpls9c1TYBsY3UYlYEbsHUPH8OOYBS2y0Mx4ZdixmwLUvWWSBiDFDyoZITuyHLxkgF23fzPLNXbDw3HvdqS3M6hRB1gIwDH6+ezM+jnHnr8PJU+IkDi4frHJK1Ob9DDdAF+pWGBj63eFtBeBONDXxEexe0ytaHz2dgRtPs6fFGZW0CH9ILvHXuH+qXHCmipGLgz0vpJnhL1DsuCufWvkeuzpRCjLaBf7c3ariNngf3NAw0hca+IlYIwImHI1vUSstz5dbrAm2H4wTXzsGQWXc2NGupwdS8HdfQY6NzQJWXYGSGIz5S/ag1wjZaux/BemHEAURcY1e9gnkQ7o5RpBZ118LTzDyK1nZQf/48fduUcm0zO5j4iW3bqHswK39NYGZS57KMlpdzzO9ahOtllK+8SXpamuUYaOVdM/wIPbBP5bVrK5Bkxl7Uum0SIYTlY/Z2cW6K4QsfAVYAbWmNzlxENkZBTzKi54MnbtlXZ8JSi+5Oqwz3uHeX7U6keYuXmECz+H3cVgu2lb+xafRXcG92ldcYFyUfZ3ZYULOQ96wEqOHV/tPHdSnUCT/c9swHas4tIqZKMfI0Hu/wPfXhPezWNAph75iM3LIO+EHa5z4pzGvrbaWUnnxxPB2IQ1+De6wPhrv7ah/RG32Ei7upu7RcfxPjnQt6Y19xwXs4ow6rPJaYZ6zHmw6MVMf7f3pE4S8QtfyoNJRjiJ2X1fC1j0cXR7Y3o89CVHtZu2cOFBJVoTbS5BIxgz8+CvVX6FUJftSGJ0Xa3f8D2e7EIhFCK9OB+B1UEziiAfBM1CqqRU+A05PqC0HK7KUUnEy0WnTFTFuLBc936muOz52rtRGca/GVdWKljan0tFD66mEZJZ724HMPutb4Gv5hbRZnJ5nNZrazMteq/J6yf5Eo8YX9wJfxkfztVYJEC4Z1GNLv8PbEX68YQ7Dv1VHdey/mQtsIkt2xTbtD5rzi1/Db8a3EbPyPgXyXWP4/MHsyhue6Gmuw27bl/mP/nYYgCIIgCIIgCIIgCIIgCIIgCIIgCIIgCIIgCIIgCIIgCIIgCIIgCIIgCIIgCIIg/q/8B1/Icj+rdqgNAAAAAElFTkSuQmCC;" vertex="1" parent="1">
          <mxGeometry x="516.9399999999999" y="331.58" width="96" height="96" as="geometry" />
        </mxCell>
        <mxCell id="4VljcWicfZ3Y40dabnpL-14" value="" style="endArrow=classic;startArrow=classic;html=1;rounded=0;" edge="1" parent="1">
          <mxGeometry width="50" height="50" relative="1" as="geometry">
            <mxPoint x="576" y="357" as="sourcePoint" />
            <mxPoint x="576" y="253" as="targetPoint" />
          </mxGeometry>
        </mxCell>
        <mxCell id="4VljcWicfZ3Y40dabnpL-20" value="" style="shape=image;verticalLabelPosition=bottom;labelBackgroundColor=default;verticalAlign=top;aspect=fixed;imageAspect=0;image=data:image/png,iVBORw0KGgoAAAANSUhEUgAAARkAAACzCAMAAACKPpgZAAAA/1BMVEX////1hTadUCUAAADXczDadTGhUiblezOkVCaZTSTTcC/1gCrFaC3sgDSZRxPw5N397ODt7e1TU1OSkpKhoaFISEjz8/M8PDzHx8daWlrq6upgYGB9fX3i4uLNzc3a2tq+vr6JiYkNDQ1ycnIiIiKkWzGYmJiWPwD707unp6c1NTWEhIQgICBra2v6w6P3nmX0exv+9vD2kEn94c4rKyshISGxsbEXFxfgo3vgy8HBlH/VbCP5tIi4hGyZSBf4p3Wqakr2l1jk0cj5tozmj1javKz6yavQrpyudFj6pXLVkGbdqZDtikvz6eP0eAy2gmfCXRCRMwDprYXtwavXez0Eose3AAAGT0lEQVR4nO2ce1vbNhSHnahltG5D48TyNY5zwZBAuKbOCjSsYZS2G+267vt/lunITqAQrWEUnMf+vf9YxuZ5lJdzjiSbSNMAAAAAAAAAAAAAAAAAAJAtk18Ps+7CMrL/5qhyrJ8c7mfdkWXj/G15vPKkpJdON7PuylJx/lt5XC4LMyXh5t0m4mbK2qrwkpoR7B1svsq6S0vC2nr5uhkROLs7cEPcMkM5tVPknLp8e7xLg9FtMyRHPylq3EyOVitP9b2Ds8PJPDMUOGdFnOBcvl0fl1eeSgG/r8w1Iy4dnBbPzfkGuXgqBfyyqjBD2nYL5EaW1vPKQmaEm73dgkyM9y8+7Yj5ysJmqBbvvs+/m/2LD6vHYkz++Km8sBmZU3l3wzcq42QR8PzZHczIwDnLtRu+MRVwVzM0UO3ksxhP/jjbfHUfM+TmLH+Tv7Uv6y/00sGfz+5jRrh5+TFnbi6/jp+9EJ/s5T3NCDef86VmrVL+SWZKOszADMzAzDxgRgXMqIAZFTCjAmZUwIwKmFEBMypgRgXMqIAZFTCjAmZUwIwKmFEBMypgRgXMqIAZFTCjAmZUwIwKmFEBMypgRgXMqIAZFTCjAmZUwIwKmFEBMypgRgXMqIAZFTCjAmZUwIwKmFEBMypgRgXMqIAZFTCjYm3jp5nZy5eZ/aPV8Qv6Au19zeil05x9BZdPvvy19+7kW+VeZvS90zx+35+y4F7fvdUPTnKoJYV//d9m9Hf53sfoYr2y8pzS4o5m9IN8exFcXqwei7Q4vFh8xwyqu3nfFiLhG/31F99LhLbLyLrLj8miZnT9tGD7651/HS9gRv9cNC+a3CliLMzo+sHu3/N3ACvpL0/zXnbnMzlaPy593Dmcv2sc7RySz11VFmHyTU5p55kp6JZxN5i3B2O+dyhalBtmir415TUuv1SumdF33xez7s7j8s36xlia0fewPfANJh/K4yfF2nFxYd68/Qdbbc9nP49PpQAAAAAAAADgTnRYlHUXlpNg2HWqWXdiKemxmNlZd2IZqRod3t7KuhfLiM0aWou51OzVXcc02pHmeobRrnH6UX9oGEOqQ82gmSDartE3TDOk6x6PDMOyggw/wUPhiCITsB41O4Yp0ipkvmOTsTq168JZuB1pvFcTRB02FJfa9NNaV9ywxbaENj4QevNGlaS4zpDaPovp4CVlZ2BUuWfKm1oWT293WKg1rI5sRyLSWqxFzcYwf/lYG1J6RFKGnyRVeqi3G1oUyptao3TwGpDHXhogrjDUYk3ZNgeP2+2Hh/flH7sxpDDwTSnA78/MiCtN247ZMDETyQjxnDSCBpYwkzRN73H7/fDEzKH6UetaQoNvyI/sWzMzbt3qMsasrjQTMpNuMAepma0hz68Zn03pzTHDHdbt2K5bk9nkjrZlGs3M+P38mgm2/bTFvOptM42kvmrSDO++TmqKb6VVxzHym031tIDS8Nu8ZcYNWTJPGbyu0sgcJreG6ZQ5GNVya4b3Z8NxwLbmxUxIrXDEuKi+04GZe315GIx4bs2E0zCgj8t4x0zMpGMTTY5HNd7sDEI2ipjhVglxzfX6MW/2zQaFWvLrlpNB9x+Qeutq6hp0gjiSZmK5LtDsLVFOQr/TEZPcIA580SIGVGTq4qRHjTitU1H90TsPAAAAgJu4gW3bzR/fl3OSR3cJPZrW8JpB600rcpMbgrq4UERPVXO2+Gb0rqXqTM8MqcajhxKsW8AXVFXjyoxRTcQMPc8SB3rw6TG27Rkjxoo35SUzTl0SxVzrCSMDsd5u0nOcWAu6bDvWtFqbmfl7Iv4DyExtdsZFbiVPQKlliEUmo3VSQ4RQHl+j/Cffm3FlpEiCVi3SoiSNSFPh3mqSmQ4N07YdJMl0/ZV3M45pWAq32aiQMZOyHWhb4nD7nkCEjFe4/xG4ZkaEhT/PTK97lWMFgsxcTVZawsH0cahblWHS8GgcDzPoWsZ8X4FDNhuEYtPwhKTQSsfxwnFjbGonw7RGL7SZpWm2mOSxOlf8cq4hMy2NJ2jcn5YUm1GWuSJiukUMGO371cGooTWH4ujZQY1O6c2KiKhkTC/y2MT6DXrvPfMUa7xzdTHMuqePzfW19ojWRmF60g6TVUFhzcwh7DiOV7y1NQAAAAAAAAAAAAAAAIAs+Be5UMDReRYcEwAAAABJRU5ErkJggg==;" vertex="1" parent="1">
          <mxGeometry x="731" y="13.67" width="221.89" height="141.33" as="geometry" />
        </mxCell>
        <mxCell id="4VljcWicfZ3Y40dabnpL-21" value="" style="endArrow=classic;startArrow=classic;html=1;rounded=0;" edge="1" parent="1">
          <mxGeometry width="50" height="50" relative="1" as="geometry">
            <mxPoint x="425" y="415.84" as="sourcePoint" />
            <mxPoint x="739" y="415.84" as="targetPoint" />
          </mxGeometry>
        </mxCell>
        <mxCell id="4VljcWicfZ3Y40dabnpL-22" value="" style="shape=image;verticalLabelPosition=bottom;labelBackgroundColor=default;verticalAlign=top;aspect=fixed;imageAspect=0;image=https://img1.daumcdn.net/thumb/R800x0/?scode=mtistory2&amp;fname=https%3A%2F%2Fblog.kakaocdn.net%2Fdn%2FuWqZ9%2FbtqE0QKQrAN%2FUBHJpXBe2pkDRmtSVnmUZ0%2Fimg.png;" vertex="1" parent="1">
          <mxGeometry x="900.95" y="612" width="105.33" height="79" as="geometry" />
        </mxCell>
        <mxCell id="4VljcWicfZ3Y40dabnpL-23" value="" style="shape=image;verticalLabelPosition=bottom;labelBackgroundColor=default;verticalAlign=top;aspect=fixed;imageAspect=0;image=https://miro.medium.com/max/1400/1*CPllEtejNuFpU73oVX3xCA.png;" vertex="1" parent="1">
          <mxGeometry x="945.88" y="525" width="130.81" height="40" as="geometry" />
        </mxCell>
        <mxCell id="4VljcWicfZ3Y40dabnpL-26" value="" style="endArrow=classic;startArrow=classic;html=1;rounded=0;" edge="1" parent="1">
          <mxGeometry width="50" height="50" relative="1" as="geometry">
            <mxPoint x="952.89" y="597" as="sourcePoint" />
            <mxPoint x="952.89" y="516" as="targetPoint" />
          </mxGeometry>
        </mxCell>
        <mxCell id="4VljcWicfZ3Y40dabnpL-29" value="" style="shape=image;verticalLabelPosition=bottom;labelBackgroundColor=default;verticalAlign=top;aspect=fixed;imageAspect=0;image=data:image/png,iVBORw0KGgoAAAANSUhEUgAAATgAAAChCAMAAABkv1NnAAAAw1BMVEX///8AYYrkjgDkjADjiQAAXogAV4QAW4YAWITjhwAAVILookT//fjjigAAVYK9zdiMqb0sdZlxnLTnnkP01a5PhaPwxI345M778N+2zNjnmyjqq1uqwM7mmTBrlK711rNEfp/hgQDl7vIqbZL89erO3ubb5uzz+Prf6e5/pLpajKjss2ruu3767N7wwpH///yZtsf338MATX7yzJ4QaI+bu8zqqVjtt3TllBj448mqw9EARnrnmi366dbxxpvssWXgeACRaoHrAAAOlUlEQVR4nO1d6ULqMBZuKWnTsDMg4kWgbBXkKrIoMnqd93+qSdI2SVdarAq23y/FRMrHSc6aE0n6FZj16vXd1Pzpx7g0jIZI1TSI0HA1+ulnuSSYsiZbAFBdzH76cS4HQyDLGtQA5U5D7Zy6eJghTFdzNx8jS/DAuplvdnGwgjLqkh/u5ppKxU4D3Z9+qEtAHwua83NPtqhD8598ogsBJk7jvx1klTCntvPlegx4qVan4u9U6DS4bQzbi+bh7sce7NyBlQNoiy+MGpAqCRkATVOr2/4ht+4C0QAymrpe6VdlDqCpqHH4oWc7a0yxyG3dL+0AQkiFULOtO6CC3c883FljgdXDwv2SaY5q3d5q3m8gS8/KamMaPDvDMPF+Vl2F/HG0si1jgPq5pvUAL1Z5HS5Q075KqdNgbhh7sMPMgQh5GjUtqavm5p0HeJtz2yRejBaICp2aC50bW2yThG1zFqZjat6h/jc90YVghj0tdMRLsHwKOM7jTiJ2VRkMXa+MfPvZXYM4sqCaL1cRQ80OL1k4rNWq31+oI5AHTzwYqTJoCL8voLz2EzSlcXY1UpFkDXXo9lmxD7v2u/fmkCxXbZzbJQwmlDVRZZqqDIPWZJMYJmCbh0wY2kBWRUFaQRhooewoc1oeqXOwgrLLvjW1dbDl0bWM4Zw5GzPkiZLMFyEjp1TmQL5abRD3Qfw9XAFYzMm5hrCA9apaizd0Sk3hbc4cxd3arVejQGVOG37l41wQsOkG4o6lGgI2v/JxLgc7T6owEivCHMpzEQQjrFfjy1CTxJlQnoogWIDISLAHQ40YJbmCwKhVZdiLPdoEpEIsd/gJtgCM44+mqrWab3OSUPQVD3Nizqm574UBfWn9SGADxh3GyyyIpx+dtXHhjopcggm/F9hhVROkY1aUudzdpx5BIh90LOea1UIbJGKOalYUMzbwq2Fqybz3BUl8JbBhfi9mIJEIjdRc5GxMVTk42xCMOfZZPcnsjOIukeNF17a8zq1gWsFfTVIgMie7Yp7dlyRSO51k/Ixmvb7qaS4HJNuVTH6I45VXzkkH7OgnK+Xa5eqBoKkl8vMxTGoEZ75uTk5kjFBQ9ZD1Ws1Z9Whtpg93RJ+gjAfRezDpSpVo9bWs1b/gaS4IC+2ERUddffgFT3NBGIPEW5xEYyrJt8ZfBROcZJIRkTthif8ijNBphgU1grN8PHNaPS0SnnmRq6mydpJdQUQuy0cgujBJFYQ4sZptkTuobuKGsdftlkSOsytyXfdSra9j2xjU1c9u8gEvVciFrIbiRz1MWvaVWZGrYXOEEUcSMfGNE+LqZzffNUNCVWabuKCxSw1HmU6xmojbsVZMHMZWsk0tyyU4QpijTk/ix3dB7zItckPAjuc37G43sef2syxyc9YXzVStJkvxXVCa1VczGpfDhpytSKckrjscgwT+QJ2YJLCdydWKpcbe5HqQ7HeYyARxJqsXU1VeZTCOTrqN0h/IosXLdJtE5GZrqxcTRPPMVRtiQbM0Iyngqs6I95ogtjtt2F1KNbTI2OER02nFRwJF5BzmNtGxEWna1BDtn5a53rh4idKTRrIdJzqEnM4Px3QuVzXaAixTtTh2Jw2Sn7dED5skKOmONe3T7rhwm6X1WseKtW2OkOOo1tZHelYFwjw0aJ46S2bdGMgaIFucXWDYVE/zpLqAKOZGdvQr9QBoNyD7Mw8TF+LYaCKsWTIUpJvSJkoydHL65hYk1A8OaqSpUIZ0xGyLIER8YxslLppzYJKefXCYHU+iVl+JCvFOOzmfcMDqVZOzZdIJuAMn68fRsJrltnOjbUTr1iPoQS1bdokLZiN2cw3/3LaaJRXhRX94+lzSny67RTmrT3RoaWpZLrA+JC0enHXrzXZjjLHNdh+rQ4KmD6PVkHTp1wAFjZYMv+zBzh5xZW7UayMI2LUQQINIa++y47b6MYslczvnQgN6lYbWWDR7+SV9cdC3A+gq2s5rOWPxQQtJ5G29m+XFeRJIwY4Ms2t/nAwT5d0gT0PX6kCay1xizKvUdIs0X2a1w+6QSN3Ourte95d/G31kXbAU8jFHu7ZaVSFUq6gdM+5y11QRxDPILbppt08od55am81VFFr+We9Pg1YABk+vE/9g/t/fo59ljqwLlgJvHm2K9nG8m0lWSGMzIFqkqLA7yxtD1/ViJPQP15zHp+WtHg6j8Ly5dr/LrfMGRsBX4EINWBcsBdw8at3UxwCHxz+d9T0waKn1vt7s9YpSOArlXphz/aIcmaQoRf3WxdB/nPH6MeKkEb3GIOCum7kqu6EeDbwckGdKSn2I3/d6DNY8xC1jUV1Q9P0rn5SAOLa84NgtHl7ejjd4NQOmpLHPDWLSJhI32esx5xQU44q9VSLiyNVUtI4EisTMvNJzvI/EXPNNSeO44qsRlwJOXLkQl2vK0oPzXsmIk6QppQ6IxQA1v/gcCXOaft5kmEIaQ+BAqRQjNnu83TvK4U9FpFMJmFVUBGp1R4cmJQ6bEX1CncAcJ27Mt6zIXW7FlAlosBmfJ67F1pyi3yw3T50o/LXmdIR1qujKn4fWwIPW5r7AdwClZL9ZcuLINXyqJmxjnLhhnYmSGmUI8yXdnoP0iCuxj1d5ijvnXhBSpfUYMmrAZVm3zZJTiKN7HWBniBlxoGGy7S6q8LPLRqEp2+0+T9wj+3TFh+Ojbey5LBUCzFwHEzZO31ivnEYcseqgUw0gEEd7b1g/RxT2NAAf1EyPuEnFKxXHUeYrVY+U0idnYOXFeuFU4iSzvbaPj4jETZkwhWf7+RjYS5W4IuMgQnbcuObbYiFsnVpwNITyx/r9ZOLwFm8zJxInSNMwbN6Ce2fSGRF3Gz3yJj3ipKl1oZCLOGH/CrFI7th94MQCySRx2B4jCsJFnCQzNRni6zOq6FnGAOJGDFGa2Zwy2K9cEHGSScx9N3E7ZpwEd7bi3ha19QKI2yIb/40qiuquqxaQc7DvkoijcBPHvYJgX4Abv3QtBxA3dGQ28p6nrvN/WK3fhRMn+qFBo3kUjtaIfg1xg7jPfk7EjdhaDPLbD3wl070pReLKzKdkftFRnBNxTv46+JwwM1dk648pEie4XPoy5rOfFXEzwaPyjuXGry2OaRL3xKNKxf3V67ULk0mQgXtWxPFPrvmuimwL3hZFmsRJ99yBCogPGZXScuBRG+dFXI2ZuN5jY3e+IECqxEl/IoO5ilLR9ZIrBHJexNHWTB42LDR9Yad0iZOujGPxXEUvbPj4MyOOq07NNZJHnVigM2XipOtnvXiEO0V/Ywv2zIjjkUroskjqzPhld4GnTRzm4upG1ytKFHtK0QmAnxtxjCG3RcLDIkxrpE8cxt/Wy/O+ohsCdF3MASoVW+bOjTjTY+Za8Bq/BF9CnI0yx+OkM1gqzLUoVOxczbkRx/kAgkXCcjlCrO4rifNhyZVusUxfOTviuN3BLZJaUHQ4gLjGlxEnLXl03drlzo44buny+yR8xi/B9xI3YTzpHfrC+RHHfSvn9nTuialCrfv3EleunD1x/OM7lw31mU4VG6kHESd/HXHK+RPXrbo/mGD8iicPz5C4wZLVDC55njEl4gYvpdLSTkQGE8f9Lqtaghu/rpB6AHHjHyZOujcqNorFjvNiKsQ9KUbx7UY39lQ1hRDHYuRWqJcbv64kThBxX7jHxVuqV0IRipOmToO4B+OWMjYoGCRGHUIcTz6Q0reeO9XA8M3ERSiHQpmP2wjM2bzsP0/ck/Fc/vfv4V+rXL4hxQYhxPHkA9nUgoxfgu8lzmeOTHjsU+8IAwc8ymKVxLGZiu1z/HEGVOJGm6V94XFilF4+dGUyMZ7DiRutmZCJITo3G1HmiBZ1OuAk4l64xNllXjwY4E5UvPIYi06qRe6dmRW7KPPK8d8UpSzFwquxwV/UE/m2NtKLMQkljlfgwB4zfr1dmQOI42myqIrqz7lcimKHM5+55190FaK/C5VdH8Ku52TQOsLuGC8b+c+4tojrGC28bJ/CieNG8JbbcJ7MVwBxQmksOIQm82t+4spRmHQe9oKT71SytoSYcWUv1uSX33i5XYHPZDnbGy6rxfvB38kk4s3pt7Q0ynjF7/e3xk1ZesfkhRLH3XUOzTMkqHakyWtjVXW86AeCO3AOcX+NyIMNYoBTYR//USwBVop6pbC3cXMjjOfkMrEUUkP4/0UerDDoNnmFV+fEeBgYJALdwXo1nLiar6zaV28YWHQzFM5NAKAFgps3jLgE1eM8Y+0tuFY4gmYqfFkuY7+fVejYMl7pUl2SgrKN8R5BnJBFdejxLr3gaqW+v5A9FMmJU1wWxOZomkKYWRHPHy3jHg6oWIrZuKfEPZKs760SrlUlcZez4D9FF1Lm1QXuwzopEqfob39dj/BUKR6fZc0sudXAoHgsvyESJ30Yr+X/YVkf/O+9RVZvBHGek0fQ3ysxtD6uN65C/xb5WeIURd/7CkvKSz2O7Cj7jnfm40Mhzqkcm7iyUy77eGUQ26eGrJ4aQAsoeagLZ92QLz+NiYP2ZH9t02zVllFVVWEgND9xhhKNiq4X7l+9b0Mw2ZRogsfFgTWnyMWxuAmY+rp8I4qhEvXGzrGSyd54Hrx3WrdGidh+tcbQRgAx0myBEFJVFa2HQY5A3Zk7DLR2R9NatxcIHpxnxL2VovB8vxy8h9f5TgbL570i6sLCTenjZXm14dIYUpJSfh1cvdw/h7/1LWP8QSGZo31ML22GP/007YYbh1M8h5Pwroim8Gdx3enEron/EvS+jTjhkENBL0XXpl8Avk/iiBPBfNzKbUzP9GzB41TfcCfRY4l7pvvYdbLnCXZa4nuuCv8Q4gM/u0d9Ej2ewvietpPYTWDWRaBJcxGoLVh87+hp7LTwcPPmYH+ezNXbRzBm3cW+baVeBPqOMxEK0eE66QbZ34lmLBfV4S1LVyUcQQLi1HHaPXIuGXGJA6qcoMlnBhCHONJzsp3ZxuEhiEFco7+6/J6T/wdjoVLoGFp5+AAAAABJRU5ErkJggg==;" vertex="1" parent="1">
          <mxGeometry x="1044" y="142.32999999999998" width="104.65" height="54" as="geometry" />
        </mxCell>
        <mxCell id="4VljcWicfZ3Y40dabnpL-30" value="" style="shape=image;verticalLabelPosition=bottom;labelBackgroundColor=default;verticalAlign=top;aspect=fixed;imageAspect=0;image=data:image/png,iVBORw0KGgoAAAANSUhEUgAAARwAAACxCAMAAAAh3/JWAAAA81BMVEX///80aaMoUoVRirshQV4AAAAvYZg1a6QmUIJSi7tJgLQoT34yZ6EtZqKuuMEENVZ3msGdtdGNqcrOzs6wsLCFhYXZ2dnIyMjs7Oy6uro/Pz9sbGzR0dF7e3v39/dQUFALCwumpqbg4OA0NDQcTILn5+eLi4sxMTGdnZ10dHQiIiK3t7dVVVU+Pj4cHByIiIjs8vh9lbSmw9zT3OYpKSlfX19JSUnZ4OmMobwyW4tll8OxyuHs8/ijwNtyjK57pctLZHpid4tMe69zhpdeh7aKmaieq7e8xc0tTWkAMFMUOllHYXnA0OKDk6O0wtKPtNRbe6ItRKguAAAHpUlEQVR4nO2da1vaSBSAgzC1ukW3DZBASORSJCLQCwKtba3b7ra7rt32//+anWsuiMcAZdKE837QOLnNvDlzZsDnyRgGgiAIgiDLmD9Nxsu0K6qf+Zu3j8qJuHz3Pu3K6oWqef74USEJ+8Xi5bsdih6mZm8vuRyq5/WORM/8zR5Vs5ocFj07oGf+6i1Xs6qc4uHl65x3rsmrPalmZTm8c+VYz+TqbaBmHTlUz4ec6olGzbpycqpnUc26cnKoZ3K1qGZ9OcXiQZ70TK6e31GziZwc6VkWNZvKoXq+50DPfWo2lZOH6Jnfp2ZzOcXDj5O0m7cRvevH97nZXM5BsZBlOy+vb37bopzD8v487SaujffHTWmrcp6UP2XVDnOzZTn7WbXjfT4ubVtOYb/8ZybHrG/MzbblFAqZtPMXd7N9OdRO5r4Gk240yCmUf/fSbu1qfLkpaZOTNTtHyo0WOYXyx7QbvAJHpZJWOYXys7SbnJivJd1yCuWnaTc6IVE3uuRkxc6kdJOCnEL5ddoNT8Dk75s0IqfwpPwu7aY/SC/uRp+cwpPCbdqNf4ijf0opyaHTnbQb/xBHxyjnXlAOAMoBQDkAKAcA5QCgHACUA4ByAFAOAMoBQDkAKAcA5QCgHACUA4ByAFAOAMoBQDkAKAcA5QCgHACUA4ByAFAOAMoBQDkAKAcA5QCgHACUA4ByAFAOAMoBQDkAKAcA5QCgHACUA4ByAFAOAMoBQDkAKAcA5QCgHACUA4ByAFAOAMoBQDkAKAcA5QCgHACUA4ByAFAOAMoBQDkAKAcA5QCgHACUA4ByAFAOAMoBQDkAKAcA5QCgHACUA4ByAFAOAL5+E8C7TuvFrVlYH+P9dUqv/N3Pwqo8vX9TeFn0fjbcGMY8akeTnAy8DFkyj7wwWo+cLLxGWxF51bimpQ2y8AJ2xURv5GTk1f2KrzrlZMxNaEfHQjzZWS5EIZeb0bCEU/bcqIWKtr/41y//oWEpX7QsG5et5ZtC2AJg215wMHvLoim+HW97qcrsujG8b8dblFM8LB9mcLHBAO/z4+2tHVw8+JRlN9TOfz+WrVX+M+QcfJ9k2w3Fu71Hz6brlf/6X20lYrmejVa6z4saxuTH3XXL15eTKzWM2zsr3q8rJ3dqDJZ7FvSsJyePajiTmJ515ORWDeP2KkzNq8s5+J75sRsmjJ5V5Rx8yLkahtKzmpydUMMQelaRc7krahiTV3vPk8vZKTUMGj2PyonYmQ4VZfIsGTkevBEEWQtP9z8APMGSors1sZtmJ8V/UBBCOlpv6BLFtCKL2kHRwDkPj7TPRGHDT8lPhd78TOsdqyRk3AkqEVKXB9YjZenYGZAWIbbOO1I5Vo1iVk5oq3usiMo5Z0VNy5/Rsio/rkO32nS3Z7pkqrOCARYhtRY51XnLahgHtDsN2W8qp6Z2m/Rh+WzDDQttvR1f0aC1Ow1ra/YvPKMybTQcHtt1pzEaBh3eOz+bjWaOjHpn1JB022I3O2/oyyi0+33TMF16wmkvfstqJFKnYjsqx7BbIgt2yehnt3Y1ajTEDZuGr/ybBlKzL3r50LBHssOLivuq/3d520ZhQuCBF2QI/tjZRa2pLDmP3TMqR1qJyTFMkQW75GJbzU6GQ/r850D+TeW0yMVpmwYTcQaEuG2/odIhlVat1Ns0KbBzjJqEBA+fnFUqpyq/Uzljer7vD2lJM3rPqJy62BeXY9BbGLxbae3ui/QIYaNpLRghLBUH9LkRMuJSTmUwNEVI8IQaXmIq2kWz58BWBSxSqBxywgvqasMIzg/k+Msih6WiGq8cGfjRcr24/BGxzCO7N5UzE1umGknYgDaLnuQR8iL4wxd6afCpo+nhLA6ZHFkwjY/EUTljcdCCHBlPtYGcDWkdTBWeChNaG5NvWLKtBpscquftBM0UdImrNunxrjzaUWVtnk9tEhzVjk8zw9GqM5NBeVeOqE5dZi0nhWmOH1TzQpqwwi4Tzg1VfHVezEZdSitoNo38htpQOZ31sDqXI7uhcR5vOpXjVl3XddiURkxglnYrjtfkM5+Bfjst0rDqHEc+XCtMnqGCahD7CrWnq+x2wohj2+dGdAis35GjaEl/C3IW+mFvquaFGolP2nm3AOTQ1g5F7xipPU5wtBfGibwGKOfMZYTnxOX0FjI4GyhbmzR0HQak7yhmIksCcirB41Ry/Ehf6gezAabMe0COuJAb3Cwup6FSTsBi1ts+VnRI7okhCJDjqwrWZLdqRj+xVoJJSV0Ug3Lk8DNQuSQqxzuRUdwOa7cwXmqgEZuBin4OyDHlCN4cCzl2PPhp6Dk9z7Cpw5ZtJJNTU3qpnKb4QqdZVfMj2lOnFnfXGS5OsrdOLdIpDB4HPpyQqT7aDRtk3Od7qI3G8IQxYy302KAyvmBZlmemJHLY/JLPPqmcFkNkP5F8+QXZLfpE95cqhjFc+JKEjzxW2N3DGp3JDiWGmZl9wvZ4kVze5bvbom1VcdX7h3I3MgkchZ89gpEwmBPVZ7JoXDE0Y5nxmXnPtGzDNs3gA7qpatkxlbCaadrsZ4fvD6iFB4apwzTVlDly0fjl+K6O+CVoxj/Be2bF9+vpfYJAEARBEARBEGSH+B9FjkDSEssSwQAAAABJRU5ErkJggg==;" vertex="1" parent="1">
          <mxGeometry x="965" y="27" width="138.52" height="86.33" as="geometry" />
        </mxCell>
        <mxCell id="4VljcWicfZ3Y40dabnpL-31" value="" style="endArrow=classic;startArrow=classic;html=1;rounded=0;" edge="1" parent="1">
          <mxGeometry width="50" height="50" relative="1" as="geometry">
            <mxPoint x="1040.05" y="282.67" as="sourcePoint" />
            <mxPoint x="1040.1000000000001" y="129.99999999999997" as="targetPoint" />
          </mxGeometry>
        </mxCell>
        <mxCell id="4VljcWicfZ3Y40dabnpL-33" value="" style="endArrow=classic;startArrow=classic;html=1;rounded=0;" edge="1" parent="1">
          <mxGeometry width="50" height="50" relative="1" as="geometry">
            <mxPoint x="841.4" y="265.67" as="sourcePoint" />
            <mxPoint x="842" y="146" as="targetPoint" />
          </mxGeometry>
        </mxCell>
        <mxCell id="4VljcWicfZ3Y40dabnpL-38" value="" style="shape=image;verticalLabelPosition=bottom;labelBackgroundColor=default;verticalAlign=top;aspect=fixed;imageAspect=0;image=https://dpsvdv74uwwos.cloudfront.net/statics/img/drive/h2jfrvzrbyh1yff2n3wfu2hkqqps6x_uvqo.png;" vertex="1" parent="1">
          <mxGeometry x="788" y="238.69" width="121.79" height="62.31" as="geometry" />
        </mxCell>
        <mxCell id="4VljcWicfZ3Y40dabnpL-39" value="" style="shape=image;verticalLabelPosition=bottom;labelBackgroundColor=default;verticalAlign=top;aspect=fixed;imageAspect=0;image=data:image/png,iVBORw0KGgoAAAANSUhEUgAAAPMAAADPCAMAAAAXkBfbAAAA6lBMVEX///8JnOwGbaUJlOAAaaMAa6QAZqEGb6gIkNoGaqEJmOYefK7y8vIZfbQTm+YJn/EVdKltmr4hisMVld0AYp+SutPd7PMIh8zm8fdhk7o6gLChvNMseqzQ4OsHfr8GdLAthbR6osMfltgejcsHebcIitHx9/oAl+umv9VqpccHg8a0z+CoyNzF2ebU5u+Fsc6bwdhNXGR0qspMjrkAXZ3O6vqb1fZNkrt3g4lHq+xwvvI+jbpdkLm41uVJs/CdpquvtLeIzfXIztA9T1iLlJnc4OFTYWl7v+3C4/mr2fUlpe2TweSRss1bnMFMladuAAARZ0lEQVR4nO2di3baSLaGoVRVApEOokeATLj5DCgNSEiBpOmEMNPTPX36dCa8/+ucuupasgFjCY/1r5UsWy4Kfdp12XurVKrVKlWqVKlSpUqVKlWqVKlSpUqVKpUpe6rSouzTelb1MMoKfy37tJ5VPYRARvCu7NN6VvUI8v8k9ffmK2Bu1+NqN14Js0FgDYP/eyXMDaDVjcmyXV/q7dfCPG826oY+btfHzVfD3KiYK+b/OlXMr4n5VY7bEzI/z/r1en/2apiZH8b0GvwwmzG324Rb/HvR/vaqe4J8wvz3pH5EL5bZ6WD4uBTR8wuOn50OBKiZEAVUHGqmD71o5h9+TEoHKHXkR8KcOvLDS27bsNloJ1SfgGY9ecggzMkjp4xho/2oEIZzxZjJSMxyH/yfQZgN8Zs8BNhcJX5j/53AvMBm1ymE4jxxZmO8JJ7GpF7XJg3BbMzm9fqSOF3ziSGYz/RJVhZAcNorhuMcCWadUCyZRzkXzFqz3zZmerveb0rm83xPu0VHPmi6BZGcLsE8GUvm0M6MeRJnPi/G8CEA4yZA4Oagn43ZI1aetxtkDoBBUTAn6tmYFxjMjDqDBquiaE7TczHbFjEzHeIbEwK9LoznFD0XcxeDCU/+azqAe7swoBMkmWcnMJ8zbn+FzWVb3PEgo7dfGNAJituZpe1DZkAmYsYMQjufntNfD1FTk9F2HwDrllq38MM0coJGg/4zpB9GfooOM2Yjfuhh5hUAenhvi1QId8UhPa576m8nbr8J5sQhcOY9up8wGEeFG02ge8UhJWWP0vLuULP/t6QIc+rI3whz6ki/CbfrTHVirHLIlZzHLtAM4PuymLvATIvQZA+hE0qh7CETvBPMOwhizGT0Q9Oyhm4yg6RXSNCMR/aQotTjhRDA3wXzFuqNZHeBZcWVhNn8ISkdgB8ePwRUh/TUETNi3qMEc30McFkeaBej5dukZqA5Tx5h/Tl1iDCnPjdvglnq0LIpmUlMNdFiyO0lQLtg07mj6myCQ4FhdRdLTyGM/8egKS2SzRnIw7GcgTxExuJZPI1A5+GQmfTnpJ3npCdgmW3E2PrY8kcFcXPmBhletD6ZiPsNyTynMy5xQoy+Jn0S8pMoKZnpZ8KSnFl+pj6fP8hMQo0ojcjGAowWxfgpnJlmAubETTIA+YUxX+RvA+avkovSnLeNCSsZMh8TcxVl1vXZeDmnWo5nus7SCYV08aKYaz75ojiz1p9rhiZlaI3ljNr6WEDmqDBmF4JZnDniDUW8cGQV4J1x5vHzM3vEZYn7r1lkzZgB2ClgHCvMzrUtcWnbD5lZIyEmKiKBUhyzL3MGeWbWZgBNi5iuimN2IKABeL6ZlySoLiTWEsxAMDdDZprfHp+Z336QubaBQNfyzUwmbHwsAjnlkzD/4kGfZP6YT6KpfZIaHcXCtIHKzDpAgyJ9koRivqdsiafkDKTvGVfEbB98nXhbwtAKK0/I5FxQBjiHWZEnSRxqK/MkaeY2YSbxs+11OwOddOemCDMyZjbmxA2zus+LujZbXCZA8kcpMpGmD5EzSh1pAdUhPV0VzSJ8tCwMEUBgMm+rkecz+udnRq4F1oMJgtMOnfg5Hkvo44bsHkkTa/Mx+RiEz34Ta4OJUQrTZLaMxc7MzA32X2O+nLHgAm2fP2mygGBMAppGEdIMtqQqFHM/9AmRTsJISoy3Rdyp/EoiO0NLjcXFiJqZDFmi9UNsWXuvkGwgZdY07fEzvL6El2m2hsPhYNvxC8sKlcdMzUyCCT1Yj0brXpGLS0pjpsjGGKFt8UtpBHPxHZrNT6CUPG9ZzMzMJIBCJayYWsDmsgRmQ7jWuIy7zxuMxiUwizgZmWWsEfPpepbCBzEZNJazyMAtg5m1bGPcRINSlgJ6FtCNghs3D6eIC4afO4JSy/kI9EbBzLxlExesVQpyrUaiGTpZFdi4uZn7BeVzVdojsCyUmSMbZAC7K2s1cxeDcZHMIjcyJqFjaYukPAwmZ3To92//8fb9U5hFEgiU445wrU0ETvc+P39yHOfTP56KTDwwuC9vnT5d+dY/tXF/IeXpqX55GrI2awKztFVhRF0IZtpphv72qTb65Zd/vqnZ3y5DFp2ZrngsdZmnp4OmdpKh33+pvfnw4fdfyYf+dVGfFshzupy3TORabYBYaPW4od//XPvt9w8f/v3HH7WfL2GW6ewJKMnpjLSBYHKSoQXzh//99SJmiTxDoPTl+TYE+kmuGGnbDmX+/Y9L2rZEHgNUkp8d1w5yt+TRxv2tV/vtl99/+e2SMUwgG8QZwTew0xZ9DqZxkqH/5HOq8+elyPR+Or67gccR7C3iQfTjo9iXT7Ztf/pydsvWwoYNYGnLeBMKsDD049BvP3/+fL7zKRv2ki53u5GnQ1uI+yW5rftJ4bWRsPKtPH7hYhFFK9na2niiOn4mMh2+oHkryHQRppijFdDamHhq/ezxM5GZlQc30rCpRiZojrPQ7bo2J/EAQNb284XIkrgxIyP29masTEXvvc+NeJdut9vacjaht4Ut03V+fpKRjcakSZBv7InnKQTNybg/n8+5WfrLCaDLqRE2d+xG+PkTVGy9SF8nl25za0+2e0MkV47ruh4uH7em30UXPN/3CpEbtCuDm3pIkCuASK6Wh3QpC/nV3PuxG8P/9/ZSI0/ogF12WKGUT7o0+LodUG3v7v0g/VjEXxcRN8ZkEIS7G+vKQs6RQG9G7Ak49X3//5zapY0Q2SBGRhDf5CYVVM4CA3jXe8OlKnFaCBlb6jZn4/5tTVEpEUvD7ehp0DFiOnYhiIJbNTITbd5wsHqTT/1I8zYSxHSCwrsbcr3U8hFCHzeyfSuw//qWTx1fv0kXMhIjb29yuE4p0CHCW/fNmzzsT2rouIXJ9DTTEfHfWqubbtah1lNIZufjKEb9JnHmdjqjn8SljZqNXHDgvgxiIsc3CTU6em9SCkv89fk9JWXSUmosZ03aqPHdyyGmGu0tCLB5t3LS2EK9P9+nWelcbBAL69xl3XkvipjqsAXE1tg8eus86m8p+877M9BkwOa2/FzuJXJWRwvT1bbT+3eHXk1B/ek/395z62rz/pgEnRwY77+/PBNLOaOFidguh+ZwuwgOdtbWP3+eL0mIzR5lJV2YlNx3C12t+gxy3PsBxHJ1td7a73YLn2qz2+2mrRYWIScdsmDrzl/dRBb3yep53T226HPoDJ0+iY75U+liqTm9Grh1dL2XbuCURoFPYswh3ZYDc0G6Q8eQxpyL7uE2w8QryLE9b7Va/cTlkh+9Ue+/oy1XqlSpUqVKlSpVqlTpKlpf+Wlj27v1AMs+Ds3h4YoVBgNzeAML/B7SHqOrrtXyPiKArM3V6nsGORbN6eB3V6vwnqYR0OCWkyW9azN3OPMtZxEq5iuoYr5JVcxXUMV8k6qYr6CK+Sb1OpjFSwJEvJfH3EuUypHDSnnrOGAus7NW1CZqGCmKk3pjH818z+nqBZ1ti+3lP+106SkomXvdzpTv+L/vdHO/aN2927NCrW0nWieTx+x1huYgtRPa2r+bhjUkP+EcTb3Fl2Yc7r+2RKn787dS6y3Y/WL+GkTy026tYh7tQPjqRHqn+agMNL0tvfnMC5FS+sJ+iNn2EakSwviCz9EexWpAYBP/DF1nC/Gq5qym4Ysc6fdMz4t6ne8mTrwFknyR7+EUs+0DCBKlMMiuxrU36TdKYpMv51Qye1PML3S0Xr2XraEV7S3lDNkbzDbrbfKUAWyd08DtY+rjrIoBSDL39jBTCMBj6otG6VNhVjjmMDsbU1QaMa8H2bdwouipBZsxg+EwczbWGYso16YCRmw8GTHnlIKtxPCzQqpSCO8cFbNnYlkEyySUq6wBYPk+PsEMslY6g7k3FV9C18HQRREoXp1kJldfXSrxckBPR6lS8lcvy2wvwhOHoZnzagBYbBcnmcPLSUX3OYXw5ASjvQthhruu6/rHYbzbCmanJUuB4dF33e5uGEJvQ4r1QB4Dg2N3FZC6xDlTG6SYV2HrRDDcsnM9DGsYLrpu4O9kDQAfnQwzNLcbUmqzNdE5LxXwRfPCAzknOO4ubHKSeSFLbeXcY7tbcc44TOttsbwMcrVur8suFgJpO687Yb+Hpi87qyMNAHdhDYG43OJ1fDFmpPvhtXKD01f6r8VX40WsnzkbK8ns6fw3K/4AlL2wxNIv8c2uJZpbfDTv7S0IrW2qP7steVmRFZtkXCyaXLyGtRhiEXASzFi/8IEGcWFR6tGmVYLZ4V0+87bHrpjQ7+KtDpmpnLh795W1hIiZXIfwxIfxlZ/ioqXfV+VDYZc4M9xdmEGlm3sD1SvfulaM2eO/ZHeA3vCT4Ulwl5+MnucRhczdcApA+C5uq0CYOVMD71pouI6N2xc/GP6dV5bdQlP2LMa8YD+rdgzZsxNgGwPRJ2dpqdw7FYL5sItcOTP58MkdVBuAPWdP/xJEzNald1gcfs6qz4sWwJj516jekHbg14y+w6BnsmcJYe7l78ixSBoZpByaEfseZeTFOzp9JYZgzr+0j8nmX24q/uR8RZKZ46s382rxUg7bfoqWyt/bv5NyNsz0oxgrNl8T166X0RrIyyGZL35yZWSFTTOjbuhvu/xclMvMeSn64gbeGR/Y6D7FnO0qP8lRO/ed8GZPMD9hmxr3gfOMYowAqUeWWClXdno9/1zSdoaLlJ2lq5B5bRuS/o81EsywcylybYVFTQpFsWSXuxXK2ZDP3HTbGM78wBakEbMYedODlR+5QjmKmC9/E+FpzGxwz2M2z2ZGImQD4GOyuxTD7D7AvA6ZA25n5eTgsWZHmY8nMkMc9DaCLvnI86PMKOzPT2DmzoZ6QyM+JtFezJ0NpPTh+bhDJ7vuA9cvzkwfgXV2onkn9oJ7J8YwnCP2qvMnM9tsQIRT1d9EWyU0Bz3/a7jr8rHH3joP4gGHmhkNWUNwtnKyjvWYFfdw9+/yRK/n05n59GopvAAe1XF3j/VZ9mOmAj6LmNQn4S/CUM31cWbhcdgiTo6H33xsQNuHT/mpzLX7XEeCdzn4lf7Mjana4CrmbwrT5W+Lnoyfe8KHxJHf7EQeZr6ezsxdn0zARK45NyAn4EEighnnk39cOEXfo0BAqVTOwDMFdOTf8UEMPvjOoqcz2wMR/6WGnpE4Ich+c3gXyOCI00b87eMix5F5gZhzOLC/p3NDK+FdRfk9vmyHtPd0DV704N3TmcM4P7mZpszbyBE9ENPMIDG3iLbAvDAqMQPh5MZQgW5Z8KBgJj4tVzTuiXQMTL7exSU1tOT5XYG5JjKAyIw8QceXVpYnaMthVvejUhs5DMlhS45LaBg5WOsFvTDMPc7mPX2RAAl7cK8lqoxlEniqMNzU9RrM8msAhMcVDWG8nYz2YvmKtfR4MTh6tNTqCGXqKnJDDsJwCOsbXmrPwwNl3rMm58PY3L8KazA3I1bDTgQYH+XlvwJzOJaQy20h09St0C2OD6BumHljpZAVJmHje2QHYWIPW7ppQlmKDX+qnP5Cth9ZSddS1xDOp1dhrrkw5fyLn5OOVze6u4BiBRFODPlJ9zG6TjQfrLp3E3YaUx72lSn9aFy7DnPtkL0PQmpN57VcXVVqmCoVKG4wAMw2QlPer5KJ88j/DVBuDVdkrq2nVup7EJ5mQorDIH0rKpGnFfJAqhRCeMcGcvV9ydEgnQRzzWwN+3DMuBZzzQkGMGZFCIfKsMMfxm4mIQgHKo/J9oc4XgrJe8sBnRbxLl2ejyf4EK/BjN+ZjGpgYr3hKi/BsYOOaWH+Hm1zF+REhD13Z7JHnSEpdQxy0n3r7g6JurDZibJeU/p7Nu466OQ7F/k1LJLbW3gmKX6ldx05tucuFotN8OCz2U5vFGxIMXdkP1jK67K6EttP2e7CV13Mkb/J7Mwia3CzG1j1/IV7aW67UqVKlSpVqlSpUqVKlSpVqlTpter/AdgLFcBNMGjXAAAAAElFTkSuQmCC;" vertex="1" parent="1">
          <mxGeometry x="845" y="155" width="86.48" height="73.67" as="geometry" />
        </mxCell>
        <mxCell id="4VljcWicfZ3Y40dabnpL-40" value="" style="shape=image;verticalLabelPosition=bottom;labelBackgroundColor=default;verticalAlign=top;aspect=fixed;imageAspect=0;image=https://miro.medium.com/max/318/1*p1TndLk3UsGPBsM7qHPZIw.png;" vertex="1" parent="1">
          <mxGeometry x="284" y="430" width="59.67" height="59.67" as="geometry" />
        </mxCell>
        <mxCell id="4VljcWicfZ3Y40dabnpL-42" value="" style="shape=image;verticalLabelPosition=bottom;labelBackgroundColor=default;verticalAlign=top;aspect=fixed;imageAspect=0;image=data:image/png,iVBORw0KGgoAAAANSUhEUgAAAZ0AAAB6CAMAAABTN34eAAAAn1BMVEX///98R5F5QY96Q4/8/fzy8fJ0OIrl4OZ1PYqTcaGegqrf2OKmh7N/SZN3Po1/S5TUx9naz96UbqTr6OzIt9DLvNKHWJqmibD49/iRaKKCUJaBVJO3oMHr5u3y7/PKwM+ukbqMYJ6+qceYc6iJXJu2nMHArsihgK+YcqiFVJitlLjc1N/VydqXeaSpird+UJC2pb6JYZlwL4ePbZ7OxdICE9J1AAAMEklEQVR4nO2da4OiOhKGJQHdaeyACgqMMOINb+3p2d3//9sWvCRFSEB76G6drefTOS2BkDepVCoVptNBEARBEARBEARBEARBEARBEARBkOfDtDjBd9cFkbF/XvlnZ353ZRAJ26AXWB/VeTTsV+MCQXUeDlTnkUF1HhlU55FBdR4ZVOeRQXUeGZsSXO88LL2Qs0J1Hg0z4WCcDUEQBEEQBEEQBKlgmt+8lv9YBb692p+MmdjuerqazWar97Xbs5QXBVYg0N1IXMETcMzmYvnN44H/fqrAdO3byU3NbVq2650KnUoNYnW9n5vAXvfTyCDsDDGicOcn1et6iyEnU/yeY+7EJeGhWm6qbvVgMF2MX6moQNr34oZam+daXwsxQp3tcLa2nyJYNFI3X5XEyyJCKDUElBKaTnvyleaKXYPNhKnb2eVXULa4tlNTjDrxFq95DaQKjGf7mgEUuJVaF8UYjRZz+/Ht3K/+TcPc8kJKyu94eVMynsoCJxvCf3YGirslIb8VjezrX+v3dwJ/SIn89OIGzJlpx89goa51UW8S9d1HH0C/upMbRs9goXnJ03tu9vLlEb+aLBS3nzJems35X2vVGc0MXQ0oWbrKYRDMI5WeopyxeHB9fjEyaRo95rr2LQ0ydqUCU3E9mVfuZztCvI1onjp1ejXdI7/emCvkCXZ1Zc4CGZncsx6KX8xokidYNb0ljSR5koWwbVtbvh/40QA/1qjTC2u7Rz4MqvKYYITqIdH81pn3G8jVaZAnmLGmLpiPHqkL7oVtY5lkPTzR0gwOLL068aZenEKetVxvnzZW+1Sy+8BJ24U6eWvUyDMK5T548qskeeTpZQ5sm1f6JR4LuzaEwmnVCfpN4hRI7keyrBZSyUWW8th+IE7q1MuTrICzlDvJdLtM0y1lpbeXpxdovsbQ6TYnXGzqlEacVh1fatXckSZEtrYkLb/CvNSn8mozw4leSbHgKf3gSEa5Pcz3//z4Q35To1Gejru8vCqj+QLUjkdJEtte5gB96Fhya/dbYdv6YIgcRBk2LZXQqROnsB/kymyHby9vi9QoW9ySlewES/AjocOdv7d7PXvvzvspBQWrFrE9rKzLl3UfhDdInTzxMe9xlG13e9DO5j4D/bPim63BgPP5XwMxv5OwPCHp1CmNAuJM3FFRzkzsdQj1oVtoXA/g6bQPq91JBquUXH5mn5r9Y01ucUxuoV4e0x93nelI+mswBZ1wKJUPMqFDygeWmI8olTwJjTpg6Vq4GHCFb60j+BvsH8Bhc7yKAombnaw100Sa2sKa3DJj3gKrjxqMVorZ01yBRpCjAjawbbPr34AvN5WvV6vjgxckO8n/2wsXw6Cp+NEE057SdgWDjFASyv2tbax+W6OH9e/vSMlQDJDKshPatnOo08y0dk2njgkcNnasLO2B624QMRiDn9c/08pzrjd2w8pSrH2sm/zN2+S5P7TuiuauLPChbQtPygvvi9JKAE6tTiymd5oqAmrAdQejMeHhCCIPUUHyFb500Nrc8wF5xKxAw0rh3rhsx5JU/P+qciu1OgMwNrxKmcLNAGEh8WRxr4Oi0FcS9P/VEt3sbnl2175Lf1YNoyf6fbFa3InJIK0+SK3OWiyPUqXlFaEH4LUJdapj9KsBJ/3/lLsdTP/aemAvgANW+WQTDMRinSjaTKmOKbwejfcbi5gq48teMHY+bbX5DAx433YU4d4Y2rZNnV3TqfNDDA1fUahwz/htu9yKxeJesz9+xSfG5m2j3GjzgMfL/4sobZRSHTCvKcbmiR3vH4xPTBZ35aijFvX/g55Tq455VLgs6plaqU7MHQk61jj8wnEXTlvwG3iHsyfYo/4kGtTJPeKKw892yjsp1RFuH/2t8VjEclXc2JzBIBMJd2t3H1tWEPy9OpnWyD64fpl5gzqVCLNBl+pB0KTOULOsdIWvMRFPLYeoT+k4NFqGi/7u3RuM/racqZG/G25ZFTEyNOqUuvGpDTUrkFbVSSK5U5zuQcgp4Ysss/d9KykFQa81Pl6ffd/J+179ZqNGHWkHQGfXWlanM+3W1bXY70nb2LNO3v7dbYn+B+UZHVnz7rVWnY5bahf1mrLTtjpWQypCsWetyeW5izbjnB+yt4PxTRXQqmPuQENR7eqwXXU69rgx/kjo9M/Nm/XyrfIMnNvCrFp14OAhmba7tqxOx04bm41qclXv4lvD0PH2xodr1UmgkdlWMnuvtK1OZ5TpMkE5ilye+2lvC/TuTRwzu/XRWnVKTpvIm5ZpXZ2OeVBkUZfRRiDu4ftGjwubtvBINYkJenXccqYS0/XW9tXJ9en5k+H2nMRDKnlep+rMWligih3q85M+TveuvXSwBZw/eZvt5l6ZadNqVMRiLrxqeutnqFMQjGx/vnvJNsN07JyEKp1jiLSm9g6uo4f+5+UPebsnLNgT70GiuWJvsimSY1aMMtE082epw2sSJKPe3p9Phg7UR7mndzeX0cP+28bNbgZsfo2Vfb5JHd+oUMn3ONOozh1xtlqC3hR4262Ytqs87Fcb97oZsH2mXqg0qNNbVm09lbNqzzTFqJcadUCMWrVtpK71D7At2E7Q7STP16oTDHn2xFDdxerVgSnQYk6+5IBINO3vbDWHqETqGqueRtExEvfVBGXvppDna9WxuGHRvXm9Omuw5ZaJ/AylCVKqA/KxDXX0FGRhde+YUXkuD43aSmrL5flidXjbdzX+cq06tti4pssYhgwULa3euX4RdutdWYFEPKN7x9plL/Z0mw4G34w16X6tOrw9mebN69QBCW2nrICZyBFYVjusOidH2C2iXscKl406d4wCm9dM5+F/AGvyROrMJc8ILH3YsTKNqdVxGzaQQK5oOe0zqDuLDfPk2hs7eXt96UG6Gyzbq7bxQBYtTU/dGuyTssocoVanJ7KxiXyKrmBgiFuWljtzuqtrqk+Yd74ci+cjaxYpNWMHHh69zOjmEaQGyl1WrU7wA1jH6sIRJHIbXejz+5Sy4UA7fAKeZ6XfcHp4ApCIq16q73nrSOrAg9c8URBkRTN5L0FzBkGsh6unhzvBEWgHB8HpcBd5nenCNF79iHwSwGpU7a6KWVtS5wA+WjDk3RPaNmkkaNQBpi0fcF6pKWMYHIaGLT5vWhTfulDpY/pRvXf/JIiDZ3SrmnkGou3K6gCTAz/4ASdxKf6oO/sGNyAo7Q/4V4/idfnMIjggwrc9KBvPBpLpMuOVAxR/4lReG7xGtJZfc7QGHbukDtytLi1kgW2TXGSdOnYpvYbQzco7DAbuvD8uJTsASwkPfeX60OHK7SVFKptpFgHr4xYUfOJppwjlwB2EcHrIXzPIXzJJent/ksJgb0kdF3zPo3xaHtq2UvxBpw6cwM7VKLZq5FPX1BEuv1cuYOTXRuHiZTJ5yTapUy6o83aeA6+8+0bH4eLt7W2xCceG1D5QnTgEzll5pQRtWykxXnsiPm5MrykrbVW+sHA9RV/dgaPLNrZ3vg04eM6ved1olBsAzi4iKlA9c677nIT+Wx8HZepgWRzoedkKedRQhZP+VAy0H3fSq+MbdQ4r/BQLsCs138nxnIY6sGFpSZn0b/sMi8Fmz+tOn/Hq0yYU6vRExEa1ZweiynCrp+4bU1591hbbSEvbwFs2fmCqMNTHJ3YJLqz1TUOdSVRRp7Spo1olweiM2Oqp/T6bm+rlofRYDcbEu6gxXcpZPb84ud1PNYm6ZOvZ1UgOOFHFJkrLAW0bXwzWf9vQ7htqfShZeqqHmPasVh9Chi0k6j4Co+m48tmgwoFbDDq9q23ja06QIqs8w94pJclRvhq0X8VnYVQfw3MXhqIOZLvTxZhNexrKjiUvZwzl1dsTM1pnEWUim40wGmV+AD9UeFEnyHh70FfdZiWwbZfw9Q3/7ltwmKUGYaAOJFrMaz3i5LDaRBSUKTxORp1wd/h7tCkIYn96XPz+GeX8DBc773zgxDq4Fy7vm/A/uO5A6xHZ+fXXqy593xLldPth5ujwPlukRR3+WYbZzrObMzas2H2fZeHyn6JQXmpxnPr23yXNhSIl7MQ3/ttfvA7W7XUoYhuXiid/8eFEBEEQBEEQBEEQBEEQBEEQBEEQBEEQBEEQBEEQBEEQpMz/AA6g5azC1O8MAAAAAElFTkSuQmCC;" vertex="1" parent="1">
          <mxGeometry x="151.07" y="442.42" width="93.63" height="27.66" as="geometry" />
        </mxCell>
        <mxCell id="4VljcWicfZ3Y40dabnpL-43" value="" style="shape=image;verticalLabelPosition=bottom;labelBackgroundColor=default;verticalAlign=top;aspect=fixed;imageAspect=0;image=data:image/png,iVBORw0KGgoAAAANSUhEUgAAAS4AAACnCAMAAACYVkHVAAAAolBMVEX///8A2P////4J2f8A1v8A0/sA0/kA1foA1P0A1Pj9///k/v30///5//8I2v4A0vnu//9N3vmI5vdY4Pbh//7Y+/3K9frq/v5u4/d+5fnF9fum6/ir8PqV6/m08PrQ+fzj9/sn2Pad7fl+5/c33fq/9vzG9/pl4vdW3/li4fWo8fkoz+9E2PeR6Pq69/x03vF06vqH4PNP0u7S8fWA7vux6PObefI6AAAVHElEQVR4nO1dDYOaSNKmm6YREBBnEGRAA+pgsib77uX2//+1q6puEAGdMXfvJBt5spmMiNj9UF3fzRrGhAkTJkyYMGHChAkTJkyYMGHChAkTJkyYMGHChAkTJkyYMGHChAkTJkyYMGHChAkfCQ5/9H+3z+PD3x4PvOWJd36/ch5vaX1YxrjhZrvPUVQvD8kbNCSb9bE8lXWVPC5dxqq0GEHK48G9dhY3slpKoc508o8c4C8EbuQhM03GTOLBKvP5UHBckMBDpEnFM00rdTm/Su1vCqDByC1miqAlgs3KL+7lmkRWDnvJWECUkoCZs/XPGvTPA6jvZ4kkyWNaR45gAb6w9vGFoeTGPLUUm7PyuCtSR+BZ2SOqrxpZiDwiJUsdfGUyWfjdcw6lMEGmhKyzOb72dxYs3+jnDPgnghvPoLhYOW8OLCqHVqXYx9oX40gOkGgKZ+m1H0xBvqzN44lXhQbxtXNgXoTKSh6IK9dITgKXqPU56Zzl4UnHjx7sz8cR9Py+8xoEJo5mzAxYWJApiEu0BMLJ4L2OJayBQWfx4cP9ueBzWHuiOr9GgrjxhdQ/+grGN1qcs7rPzMFCZf+xo/3p4LEF1m51qYNQwEpU+OLog0+Gmv+LPn4+ZeEAoZXxYNgIwZxkqLLnR4F8kbPFcCH2PFJu7EEs0w8a5S+DAlhx/DELt7a0ry9Oz8jWBV/wgRTeejhdv4NJ/zE8zDk3qlC5+ZEKivp0LdFde7QoKAVGTmNvAF87Ac6WGSRjbysPpHxAutgIXegyHGx08ANRDxQX4QXc/NIfeeN3BmqgEbpcg29DU2AwbYrdaG7rBfz6h6NrB4SM6C6DJw7qrdLGXM2ov1CJB1yMS6BjjK45+gmsXBQWxj8HY5hl/Ypa79HoeoFJO5f5QLSKxhFTNCU4ZCn6X443SOJz1HoPl5PYABvhMPFeoNaSWwyKyF8t/YHj/wRn1B830F8DMSw2KzZ64nVAlyvMKX8zLzGfcxwwiocfLqGahCwQm+YVVz88iQpeJSSAUYkxdnVZL8PY3BTviRmHVpXqc+4/slbpg5CIguak8s2gvP3IDGih6Ql9mwUskJ6aplZiPA5NU25uXFmBG59WCtmqRbzoVjf/QeDGsauC1AzWqLiCbzDD1wwnua0xh6Myru0cNyBzdvyOL1irUpvAP/irEMJ29rvtP5OuJRYNtT/ge1m+TCMJYTWsNEsICXMTM4GpZ1D36To/fGryXuiwOfOrFz5jjR/uA6iO3ub61wLd3gOaRs/wsiqNHGmhEDBhBm0ZjUpDSB+JiAjlqS4yzzdOGGGr1XkbaypLdhHQS6zsfrT+cn3Af/WdHspSdAI5onwNUiVIukx2hmnSnFvSpINrWCyVj3YbSrpYF8QXGJPdR3u5tVOWf4xk994DF8XL+8JMfftRrijBZUKwKKzwDFiWLX/wZqBruCz13v4WRdf+pYNdJJW4gY35WESMltIPIskjKSgHSFSYQoY2UiGXm0MWPzeIV4dDjrlmMwgtvUpN4jaMije/fI2176fLY89rieJlyucfHfoPgUdwjzBCue9TtIb8zZH6Q9TUhSyjP1+yT/8nruSUNzO0jqvV339FpbRwQRHLQh7zReOHjAKlq08XN1YOydcHp2MjvEV3Shf5V/OilK1mguDv8Ey5mK0q0o70lGC1G7WVQQZ0pxtQ0CYIZ5kY4zkxxBhd6LeBmxuYMv5QfwKkK7ibLiCrKoVuDQlL7BMpKSPIfbR31mZEf3O+wIyO9JRyB1kz7VIKtY6FU8yvWrkrdBkF6cvlh/bVgXTdT5excbSNC/d/fTcqsISh6iEpUOIGU1Mf4hurKVy7WMxle997iULlhM6c6pqBHqfLMOY2vvGx2f676UJjeFT6Wjhr9BQ5RohoozimBMVZ/TbhDlX+1ZcxZuV4AL0PEAy8WOFIWs+ijI1RSblGl3FE5dUs/DYm8pNtlsULd/RaKk5beCt1CjdUFbl3CsBN4izbJv75CFczMAMn6Zz3Nl5Vz4h0ioX+DJrXvY5XgtmIcdfhMCk2So4VIJBypd6c56VUXTvV6Biu0vUXrkY9eGUsuJ+tSylRWE/LeDArOicuwJu24Qyn3K0GZKmrrOAqNhO2XabfdODhb142eb6HcdoV/JLnn95mCr+xonq+cF7mbQMzFinCLUbNwFubfudGXKT/qpcHvx3SGrvmIB53kfFznt7/+0RuxSwdS91fpesr0mU3SwMnDsSDLjaVJyhPh54+5NzdnCTFBeocOqUvXW5e2m0UAROtaGnMHeU00mcxssuv2qaLwc9wKPZ63vmWBKUmNSjaPve4xcrPEFbZ5B0oacNAHjJLLV81S1wSFfWFieMIX1fo4kq67Ea6XCM5KmcMZxVgpDTw+r2jDPA9mrQJ/lwgMePWPYs/Nz6wOg9ilCghus7xKv14s7cWeags9Jec18t3nihczkKVTnbp3IPTxizWTgU7Ls8tE52JNS7my/JjHBG3I+nVq3RhD49pL9rb45BfIp0yAs9OUs3u2HFpuJE5ZEzhFMeWtgrNLgMDbmz1Ocx2HLxIAMJUevpON9EcjjR/U33BxVBFz46XM3U5ugWiOul8M6a00Aw2cV7AxM5QqUL3BF8nX214K+1lYN2lRDFfDxyKK44E98nx2ruG0o0x3P4gsNMVKhs32RxtnNnRby7n8oONAmM/vXxPFovke1GSmDirAVuB6dRwUuKtvp5wwqxcGP7nY318QoFjT/UTIHu7D3mOfTXos/eWu4+SFNgYBRpKo3mSnaNiAa4Ypj9R5mYkAuCcrQb3pkKDa237h8fpgnuE956tuRLmBCfPyq3RNsVucPlgFK9jBn6A+2EfYzVCOOYX2PFpnpvTuOE5SIg8eoa+ivsFOGZlol+jUWuMy1tsceofAU+nX9MxjKWKHFmTMkUbKToJCdTrar/GnjI66kDvIkbROmZv08UXJWZynMxQLkNNorZos7WGkjdTduhP0fg2POB5ha0CgxZHlC2b1icsEnS8jW0Ji5FrX0jFjJ0h34JfKk3dPw/uraRQSMU4hrIjFzkXFC96Z2upM0dzCTVwGfazfpd0cTVVI9mTGlFeKjjOuJIdr+Mjwd8MF31bYoe44o+XXpNZhBFJa3OM3G7SHJ2zVk+L9podN/VNv4uD38RENer9pUSCllOXZzPWQ9q4RjWlCp3FyPdxKoL0iUS6go7MEWHfSpSmINyqI+7epMz/QO2xQHY6FPvJW56jpP/ZXrYk1XR5lYu1dFfMiFGMPdZPw4lJU9fBQHJz0acragZBlDDU6COLH0JOs28cMZtqPiXJp0/6vzgrUAMDW2RCEFv0pqKBPqHGg+stdzBsXK9Pzai36Gb06wcX+d576OIbwZgzzDZw1zVcNALWa3PlLwO6yvbbQXsFVjZWyeEYZAyUF9HF7A6UYwXLpnb1TJfoNRyG8UyKQcu8c6CH2FI0G8Q0dpyZfXYvPnNXzHgAwZCX+zGaa1J8o/Nc8G7OurrL7EgXX8lg3L/CIZfauHbRL20EyhcFOSiaheKiWYT13ZdXnoEJUguWLCbdzUW83XpzlbRDA65zZvDZEi4tV/1rdGd7l3TFIQXGRj+2cGlXgdJdKqrezrrZdbNdpwYZHzhEGYw+WWgHTPYypCugZCI7+9QYWJxWzUC4Byo6iMiY0esWHlqAjWYL4UHE6Ni2Ux4rtAv4QU0X2Ctcmc78lhK/S7rcPU10xDJiUoIFgpxMHPOFZcRfIDZSn8pCVRlaj40KUxZhP7e7PrvSLWdltNy657pIJoHRejHEs6NSYopEY760hQ5t4N6mHijSdjGCCbTBx7nd5HIPXZxiGMyVDhyvpdDhBc4VHaGiq7yE2v5Dnyq12I3oQHTWRjQzWUYqbVRVlR8pUHzVuRh9jQ0eDKRWbbL5B8QIeUmbUcYl7nnDYVIIxJzcQzqP6l10RliQ3qyO35fvQvEydRzcvSg6ZOSrs5QrN5X6SJqih8laZ3EzMwXb45GL/UD0+9KCycjn/mgv/S5aMdTQ07lpOdPx8BhUjZ2jY0uyKZ+KQ3Yoasc25b/t9tocr2KyP286VHc5EhgkoLCckt5hLFuICs0aaEo1DXCpVR4FxUy3D3Ll6Mq4Kcl2L+KnM3AOZtVAX/e8+txCAVlfqGByny794g4aOlKq2tWN1pznJVXzzAu6RpXEma47s6kHi1T6RZpIpZLl/DUMOg1uXimYDvplm+yoJLn+XwV4793QFmMN7J+jNtabITanLwMD1j1vI7AUubwC/e3kVclCJYxIoP2d7FaTNihq6c3K+N2ljYoyDXLdzYwkIWUYMI9jUl8lyf586WALwMypvWYECxROMPiYR7xQUj7uUjPNWTrijvVjRlDP4KHu3c6JmXyzhqYDD2wz0+KLhmLXvfbWVnss/2d04YU2NqVknI1vNFfGbKq15ZhNvYid51n+tTokzSep8VJFi1SvSxpHwH8paS1Zu+FXjsSMhTDP9o7gSVN1UY/OVB0EPRCY9la/1DcwxrSYXhA8wZRP+b9zJNR3b0sqA83KvCEsaprF0UCK7jza/ACNb2UpLU15HFOoRcLnX1QRDu7A6Eh70uVyF8k2w3MGiLvoYBIV1x8zkGD2od+Y7oWBFkv0eCnwvLkJ7t7FiIm4hCpBARBWUawOTlegKkGqlBhf3OV2AhTimLMN1SMdslhAZlKg0oJxWpE33o7To4trLcT2/vkQLaqdcSsJhbGqGfWuj3QFjarHUMpkg2xeF5HJ7qJLRUAbh7ZWs5mTbhYcG+SlqnpVM6aWfyeR0oiXkeOAj+rwcoZKbPEShaoNRZS5248WNPqLkeu4qJO64CubikI3+nl4jF1UfSe0sxg5vTKDmy16P1TFxg3EtrbSlqzRxTqpqbqqlKhjkc5f+LGQOluGEoAle1ZKobw14RT+1Xs6SA9yPqdMixO31waH0MRcxvmRMfQvyZoWOKWZ/LN2wB+xbZ5jehXhYwqNd84B78doL4rrw/GMWwI4jmTtdB33J0/V0UDkhdozzJuRch3L1azpMHLnqwL3C6lIEGS0uLXJeCybekBTiMuxmVeOB2zaZOo2ko239ZwP9JV+a+lykRUvvDCp3yyVHjyfBAPPTotWJZJ0PRutNLwXQMCiKmklEWsidKI/i7+/zzENLT63p50/Af48BFDfv78s6xKbDLEkhZ8Oo/z2juwhXbxxORurwg1S/8zZGG3YTatrLw/tINZaMxkd+VoHF3S5R7yH9teueGUOVoL0SwzB7IyS0mMZqFt8oZFcO5YSES0nEKehJpK7b5vDKvYShBevDptN5VCfHBAl2rgbVF75NVaplXvoMqjIggm2rZYkkBNKr9ppW0eDoGdn09LRF8f40LSXZ70KgQQJacdhgzgJtUPUJvjnS9RubVa7VmPB1fLpLvnSSsnP0jaQDsymLQ6c09nMQoTwBzDD7kFmtjzpJ+Ycz9rnBl3miHQZ+czUDSX6s1uHVrdTxGQx53ArKUI8+zVr9NdE2siye1Ax5IXVVWVG0z7m8WKeZMtSUAJEf4bSkKa9Sxar+gd3f6EbAdY1FOeYum0nVJXMQOUBGjJRCmHpBtrHfgOcXynL0upjxdkYqqKryewyOh33Nm2mNMOilSY+39M4nPQl22Yv63JmhhhimxdOyqtaBYGQ0pGqns3K50Z5rahOzmxbUnT8A3RheC29+epljbVjtdRMTUzT/6zq8OiKWjCKz8sNSABmeu33NoqP0EVrC1OlDRtGUiuKmhQiThQDU21wYKlFOrcoJbHpZBQOdMsm6FUiheyc4ZBPi7Mqe6JcJR3/sW33ayCl1Esi2W6qdb2Hm4KPbJG0HGczGdr0aKUyXb8c4sZq4t4r+/ubl+fwBUDzSNG/ohrJOWgBi7gppck0XaDZypdOGYd8YOw/o/Q1pQcX1ARz6YyhV1nKc/ZHOpXRUeuLkzBVB0Y4vqn1LURM9Ilektf/bfWqEf+bduu1okR6z8Oc/dubXGCRFVVRjJzoV1UFb33qPNEQVstyb0sUYWe/zEb6UzD5DEtJOk/FM1qDouheWytkN1uXsBLhMmWdzw3ePiMQlXUBa8gOnTr7kaZ+DGfYYCcUtpgw7b+jzy0pNrq8OjYtXcSXd+KqpvWTeBVjI9uV6czj1ffmbaX5+ufh67m3+k5NdcMvhut/8m+N4DrI0Zv1HsTF6QkkqgjocrXNeFb0zsHE/Dseu6GnM5g51wUMcDf7F9afuHbvz44E777uXaMTGwy++M1BX8fKYgPBAfsC7nEQVmo+EWNjPaQpe/cjlkbuI32jC+gf59dnSh8h/inOcTvFkf73NSWlka/W7/yQH8FzipUHQ65mqGspGZJi372z6I0LO5ff9WCEN4c1uPCd/va1Y/8vPcLFladBtFuwKwusMu6n7a8ZbAwo3+NJ/E7YgWEc2+nvR2rvOnWHz5Qx7sLFtP/jPcDrylNKXCxTwSIMsCvWXrcF5hacHuD1cHQd+35ei9hp2jiPSsN2+eJUz246nB4Hx2HJEIHa9lXFJCwaS/25YD0fT7p4Pb4YiaAKc1/MfubuGJ+PqLvoWSN/DF09fK2Ce8b2Y+bvQS0jeU9uXy/hy1zqjATu9hnxbr6C6dw/2jNwqKNw4KZyirNN1T1uYpPA0B/8PNIp+LsDG99YkwNu4OKTGmfUH+59oyfqWYPdURw7BcWjPdQFK7H9jATI1oqq+OKU4GYXdCdk3YuC+FaqnSIPhifcyHl+SVnLP6lENKupqveMmxyZqtI0ETBXj5X78U3z/1BwfMibab3qgihlRTaqAmkVOnhfRDN6jP1TW8/kqq1t1AP5zUG7f9AhUEbO36gnywrqATNop4hLfYFM2Gu9IZZTCI47Zx/MMgIZ2LsuTtRZ4K+WjnqMv5UmOpVC0WLmUPOqCI8bejgSPu0fhGvEff3NoRswWRil9ZNj6QYR59DmQRX8XagKa1a4r9dPErfNWq83rvvbgnbwtyVEahBZjsQ22d5i+rEvmrjR5rffG2ToNlTCMilCbB6iMTjPcLOj1GVHPNFa97MUDwGc8PYkBW0ukGGUn7e0d+CSp79NHf3/CVIbtMdS4b85FDOrZR1F9Tr3ejrr4jyO7apFHe2P680oqY+De+b+eAbxCt7RIfIRw/jlQc/lfF/Bij+ihv+vMLE1YcKECRMmTJgwYcKECRMmTJgwYcKECRMmTJgwYcKECRMmTJgwYcKECRMmTPg98B9O9RDtaPK4wwAAAABJRU5ErkJggg==;" vertex="1" parent="1">
          <mxGeometry x="56" y="326.68" width="174.18" height="96.32" as="geometry" />
        </mxCell>
        <mxCell id="4VljcWicfZ3Y40dabnpL-44" value="" style="shape=image;verticalLabelPosition=bottom;labelBackgroundColor=default;verticalAlign=top;aspect=fixed;imageAspect=0;image=data:image/jpeg,/9j/4AAQSkZJRgABAQAAAQABAAD/2wCEAAkGBxMSEBUQEBMVFhUWFhgSFhYVGBgYGBgbFhgaFxUXFRUYHSggGBsxHxgTIjEiJS4vLi4uFx8zODMtOCgtLisBCgoKDg0OGxAQGy0mICQvLS8wNSstNzUyNTYuKy0rLS0rLS0tKy0tLS0tLTctLS0tMi0tLi0yLTctNS8rKy0rN//AABEIALABHgMBIgACEQEDEQH/xAAcAAEAAgMBAQEAAAAAAAAAAAAABgcDBAUCAQj/xABCEAABAwIDBQYBCAcIAwAAAAABAAIDBBEFEiEGEzFBUQciYXGBkaEUIzJCUmKxskNyc4KSosEkMzQ1U3SzwhYl8f/EABgBAQADAQAAAAAAAAAAAAAAAAACAwQB/8QAKREBAAICAQMDAwQDAAAAAAAAAAECAxEEEiExQVFhEyIyFHGB0VOhsf/aAAwDAQACEQMRAD8AvFERAREQEREBERAREQEREBERAREQEREBERAREQEREBERAREQEREBERAREQEREBERAREQEREBERAREQEREBERARFBdtNttwTT0pBlGj36EM8AObvgPHlZjx2yW6auxG0uxHFYYBmnlYwcsx1PkOJ9FH5u0KiBsHSO8WsP/ayguE7LVdc7fPJDXa72Ukl36o4uHsPFSmn7MYbfOTyk/cDWj2IctX0ePj7XtufhPprHmXew/bKimOVswaTykBZ8XCx913gVXOK9mdmk00xJH1ZQNfJ7QLey4mB7SVOHy7iYOLGmzon8W+MZ5acuB+K5PGpkjeG2/iTpifxXEiwUVWyWNssbg5jhdpHMLOsSsREQEREBERAREQEREBERAREQEREBERAREQEREBERAREQEREEd24x35JTEsPzsncj8D9Z/oPjZQjs/wBmRUyGonF4mHQH9I/ib9QOfUm3VY+0atdPX7lmu7DYmjq99ifiWj91Whg2Htp4I4G8GNAv1P1j6m59VvmfoYIiPNv+LPxr+7cAX1EWBWKLbd7OCqgMjB89GLtPNwGpYevO3j5lSlFOl5paLQ7E6Vd2X44WSmjee7Jd0fg8C7h5EC/mPFWiqX2spjR4k50elnNqGepzW8swcPJXHTTB7Gvbwc0OHkRcLTzKxMxkr4tCV49WVERY0BERAREQEREBERAREQEREBERAREQEREBERAREQEREBfCvq+FBTGAf2jF2OP1qh8v8JdIPyhXQqX2D/zOHzk/4nq6Fu5/a8R8f2syeUV2l23ipHmEMMsg+kAcrW3FwHO114aAL1s1trDVu3RaYpOIa43DrccruvgQFV+00L2Vk7ZL5t691zzDiXNPlYhauHYfJUSCGJuZ7r2HlqSSdAFpjhYpxb36eUuiNP0AHA8F6VNf+C17blsQ/dkYL/zBeXxYpS6n5U0DoXPZ62LmrN+jrP45IlHoj0lO9sdj/lr2yskDHtZksW3DhckXINxxPVd3AaR8NNFDIQXMYGEtJIOXQEE68AFW2F9o1QywnayUcz9B/uO78FPMB2qpqvuxvyv/ANN/dd6cnel1DNiz0pFbeIctFoju7iIiyICIiAiIgIiICIiAiIgIiICIiAiIgIiICIiAiIgIi8SyBrS5xAABJJ4ADUkoMVfWxwxullcGsaLkn+g5nwWpgGMsq4d9GCBmc2zuPdNhe3UWPqqs2kxqXEakRRAlmbLDGNL/AH3ePE68B6k2TshgHyOn3Zdmc453n6uYgCzR00HmtWXBGPHE2n7p9E5rqFa4X/ZsYa06BtS6P0eSwH2cFc6qTtNoDFWiZuglaHX++yzT8Aw+qs3BMQFRTxzj67QT4Hg4ehBCs5f30pk9407fvESwYzs9T1VjPGHEaBwJa4eGZvEeBXrB8Ap6UHcRhpPFxJc4+bjrbw4LposfXbp6d9kNyL4vq5W0OOxUcW8lubmzWt+k49B4eK5Ws2nUOPGMbMU1T/exDN9tvdf/ABDj63Vd7RbCz03zsBMrB3rtFpGW5kDj5t9gu7Q9pkbpMs0BYwm2drs9vFzco08rqeRvDmhzSCCAQRwIOoIK1xkz8edT49p8J7tVXOyG3pBbBWm4Ng2bp0Enh9736qyAbqv9vNjg4Oq6ZtnC7pIwNHDm5o+11HPz44ezXaY3FFMb/wCi4+HGP21HqOillxUyU+ri/mHZiJjcLHREWFWIiICIiAiIgIiICIiAiIgIiICIiAiIgIiIChfajihjpmwNNjM6x/UZYu9yWDyJU0VU9rMh+VRt5CG48y91/wAo9lp4dItmiJ/dOkbl3OzHAgyH5W8d+S4Zf6rAeI8yPYBTpa2HQhkMbG8Gsa0eQAC2VVlyTkvNpRmdyjm3eDfKaRwaLyR/OM8SB3m+ov62UI2F2uZSMfFPmMZOdmUXIJ0cLE8OB9D1Vp1pcI3ln0g1xb52NvjZfnu/Xjzv/VbuFWMuO2O3hZTvGpX3g2Mw1TM8D8wGhHBzT0c06hdBVH2XOeK4ht8pidn6WBblJ9be5VuLJycUYsnTCFo1Iq27W6d+eCXXJZzL8g4kHXzA/lVkqre0zaASP+SRnuRm8hHN44N8h+PkrOFE/WjTtPyQZXpsnA+OigZICHCMXB4joD0sLBcTYrZKKKGOeeMOnPzneucl9WgNOgIFje17kqZKfM5MZPtr6O3tvsKntu8INHWCWHutf87HbTI9p7wHrY/vW5K4VDe1OlDqIP5xyNPo67T+LfZV8PJNcsR6T2cpOpSPAsQFRTRTj67QSOh4OHoQQt9Q7sslJoSDwbK8DyIa78XFTFU5qdGSa+0o2jUiIircEREBERAREQEREBERAREQEREBERAREQFWHa3S2mhl5OjdH/C6/wD3PsrPXC2ywX5XSujbbeN+cj/WHL1BI9VfxskY8sWlKs6lsbLYiKikilBuSwNd+s3uu+IPuuqqc2O2jdQzOima7dOdaRtu8xw0zW+BHh4K3KOsZKwSRPa9p4FpuF3k4JxW+J8Fq6Z1EcZ2Ap55DK1z4nON3BlspPM5SND5aeClyKqmS1J3WdORMx4cjZ7Z2GjaWwgkutme7VzrcBcWAHgF11zMYx+npheaRoPJg1efJo19eCrbaXbuaovHBeGI6HX5xw8SPojwHurseDLntv8A3KUVmyRbbbaCIOp6V15T3XSA6R9Q083/AIeei4PZ/suZ5BVTD5phu0H9I4fi0Hj1It1XvZHYV8xE1WCyLiGHR7/Pm1vxPhxVowxtYAxoAAFg0aAAaCw6K7JlphrOPF59ZdmYrGoZERFgVig/arXhtMyC/ekfmI+6zUn3LVJ8bxqGlj3kzrfZaPpOPRo5/gFU9p8Vrb2tewJ4tijB/wDvmT7bOJj3b6lvxhOkeqddmFOW0OY/Xke8eQsz8WlS9YKGlbFGyKMWaxoY0eAFlnWbJfrvNvdGZ3OxERQcEREBERAREQEREBERAREQEREBERAREQERatZiUMRAmljjJ1Ae9rSfLMdUHE2o2PhrO+Pm5rWzgXBtwD28/Pj+CgNRsviFI4uiDyPt07ib+bRZ3uFabMdpSbCpgJ6CVh/qt9rgRcG46hacXKvjjp8x8pReYU2NosUZpnnGtu9ECb/vMuvhqsVqNL1TgfstcxvqWhoVzIrf1lY8Y4S6/hU2G9ndTIc07mxA8bnO/wBgbfFTfAtjqWlIe1ueQfXk1IPVo4N9NfFSJFTl5WXJ2me3wjN5l4mDspyWDrG2bUX5XA4hVRj+AYmJjUPzSO5Pgce6OQa0Wc0eACsGq2roo5/k0lTG2XM1m7J72Z9srbdTmb7hdlRw5pxTuIj+SttKaj2pxKHuufJ5Sxgn3c2/xWw3afFZhlj3hvzjhH5spsrdRX/qqf44S649lV4dsLV1L97WSFgPEudvJD4DWzfU6dFYmDYPDSx7uBmUcSeLnHq48yugioy8i+TtPj2hGbTIiIqURERAREQEREBERAREQEREBERAREQEREBERAVK9vQ/tNN+yf8AnCupUt28/wCJpv2T/wA4QaeznZcKyijqm1OR0jSQ0x3aCHFtic1+S5mxuMVOG4i2lLjk34p5Yr3Ycz8mZoOgIJDrixNtV0Nnu1E0lHHSMpmudG0tD3SWBu4uuWBvjwuvXZ7srUV9Y3Eqi25Epnc7S8kjXZsrWg6AOtcnkLC/ILzmmaxpe9wa0alziAAOpJ0C51FtHRzP3cNVBI88GslY5x8gDcqk+0bHnV2JGldLu6eKXcC98gLXZZZXjmQc1vBotxKxbUYJhcdNvKGtMkzC3uOIOfUAltmjKRx9Cg/Qq5dZtHRxP3U1VAx/2Hysa4X4XBNwqwp9vJm7Pl+c/KBN8ibKdXat3geSeLhHmF+oBXG7O9g2YhHJUVEkjWB5Y0Mtmc6wc5znOB+0PM3QYNsDfaNxGoNVSkHr3YVe1Xi1PE7JNPFG618r5GtNjwNnHhofZfnWpwoUmLspWuLhHVQtDiLEgvY4XA87ei7XbkP/AGY/20f55UF8yTtawyOc0MAzFxIDQLXuXcLW5rVixmmcHOZUQuDBmeWyMIaOriDoPErjbS/5JUf7GT/hKrvsJiDpqtrgCHQsaQRcEFzgQRzCC36PFYJSWwzRSEC5DHtcQOFyGnhwXusr4oQDNLHGDoDI5rb+WY6qh8cw6XAsUZNCCYiS+Lo6Mm0kLj1ANv4XLbr3v2gxVrI8zaaNtrkasjuC9x5B7joB4N6FBeNNUskaHxPa9p4OYQ5psbGxGnG6yrBQ0jIY2QxNDWMaGNaOAAFgFnQEREBERAREQEREBERAREQEREBERAREQEREBUt28/4mm/ZP/OFdKj20uxtJXvY+qa9xY0tble5uhNzcNOqCO4Ns4yu2eggcGh5hzRvI+g8OJaetr6HqCVX3ZxtG/Da4w1F2RSO3M7Xfo3tOVrz0sdCehvyCvjCMNjpoGU8IIjjGVoJJNuOpOp4rg452e0FXM6omidvHWzFj3NDrC1yAbXtYX8EFQbXYe2ixp7qmLeQPmNTl5SRyuLn5SDxBLhbq0cipvPJs0yLe5YXaXDGbwya8t3e4Pnaym9bspSzUzKSePeMjAawvcS9thYWkvmvawvfW2t1H4eybDmuzFsrh9l0rrfy2PxQRjbCkpJ8CE+FxhkUdSJpGAWcDldC/OLnUZmHiRYX4LH2UbX0tLSyU9VIIyJDK0kOIcHNaCBlB1BadPFW3T4bDHD8nZExsWUs3YaMuU8QW8De5v1uokeynDd5vN3Ja993vHZPL7VvC6CpMRxNlVjQqIr5JKuEtuLGwfG25HLhdd7t1pXDEI5CO6+nDWnxY9+Yfzs91Z1bsDQyzx1BiLXxCMM3bnMaBEbx9xumn4BdPaHZ+nrYt1VRh7QczTchzT1a4aj+qCE47tzQvwZ8TZwZJaUwCMAl4e6PJZwt3QDzOmml9FwewX/EVX7KP8zlOMG7NsPpn7xsRkdYgGZ2cC4sbN0F/G11nwnYGjpmTMgErBOzdSESvJy66NcTdp1Oo11QVnthir8ZxOOipT8yx5Y08jb++nP3QAQOoAt9JaeE1cmBYs6OUkxXDJLD6cTjdkoHUcbeD2q4NmtjKOge6SmjIc4Bpc5znGwN7DMdBe17cbDovW0ux9JXuY6qYS5gLWua5zDY6kHKdRfrw16oO5FIHNDmkFrgHAjUEHUEHmF7Wjg2FspYGU8WbdsFmhzi4gcbZjrbp0W8gIiICIiAiIgIiICIiAiIgIiICIiAiIgIiICIiAiIgIiICIiAiIgIiICIiAiIgIiICIiAiIgIiICIiD//Z;" vertex="1" parent="1">
          <mxGeometry x="21" y="414" width="122.97" height="75.67" as="geometry" />
        </mxCell>
        <mxCell id="4VljcWicfZ3Y40dabnpL-45" value="" style="shape=image;verticalLabelPosition=bottom;labelBackgroundColor=default;verticalAlign=top;aspect=fixed;imageAspect=0;image=http://tech.kakao.com/wp-content/uploads/2022/06/01.png;" vertex="1" parent="1">
          <mxGeometry x="238" y="335.01" width="126.27" height="73.33" as="geometry" />
        </mxCell>
        <mxCell id="4VljcWicfZ3Y40dabnpL-52" value="" style="endArrow=classic;startArrow=classic;html=1;rounded=0;" edge="1" parent="1">
          <mxGeometry width="50" height="50" relative="1" as="geometry">
            <mxPoint x="180.87" y="290" as="sourcePoint" />
            <mxPoint x="180.87" y="110" as="targetPoint" />
          </mxGeometry>
        </mxCell>
        <mxCell id="4VljcWicfZ3Y40dabnpL-53" value="" style="shape=image;verticalLabelPosition=bottom;labelBackgroundColor=default;verticalAlign=top;aspect=fixed;imageAspect=0;image=https://cdn-aogbe.nitrocdn.com/LYdLTjFVvLmCmiqbCPnUYWCzZdgiptoK/assets/static/optimized/rev-b27b740/wp-content/uploads/2019/11/State-of-Web-Browsers-in-2019-768x421-1.jpg;" vertex="1" parent="1">
          <mxGeometry x="79" y="22" width="197.5" height="79" as="geometry" />
        </mxCell>
        <mxCell id="4VljcWicfZ3Y40dabnpL-56" value="" style="shape=image;verticalLabelPosition=bottom;labelBackgroundColor=default;verticalAlign=top;aspect=fixed;imageAspect=0;image=https://img1.daumcdn.net/thumb/R800x0/?scode=mtistory2&amp;fname=https%3A%2F%2Fblog.kakaocdn.net%2Fdn%2FuWqZ9%2FbtqE0QKQrAN%2FUBHJpXBe2pkDRmtSVnmUZ0%2Fimg.png;" vertex="1" parent="1">
          <mxGeometry x="118.03" y="166.99999999999997" width="126.67" height="95" as="geometry" />
        </mxCell>
        <mxCell id="4VljcWicfZ3Y40dabnpL-65" style="edgeStyle=orthogonalEdgeStyle;rounded=0;orthogonalLoop=1;jettySize=auto;html=1;exitX=0.5;exitY=1;exitDx=0;exitDy=0;" edge="1" parent="1">
          <mxGeometry relative="1" as="geometry">
            <mxPoint x="962.5250000000001" y="462.68" as="sourcePoint" />
            <mxPoint x="962.5250000000001" y="462.68" as="targetPoint" />
          </mxGeometry>
        </mxCell>
        <mxCell id="4VljcWicfZ3Y40dabnpL-66" value="" style="shape=image;verticalLabelPosition=bottom;labelBackgroundColor=default;verticalAlign=top;aspect=fixed;imageAspect=0;image=data:image/png,iVBORw0KGgoAAAANSUhEUgAAASwAAACoCAMAAABt9SM9AAAAe1BMVEX///8AAAAQEBB9fX3r6+u6urqnp6eNjY2AgICRkZEpKSmzs7Pb29stLS3z8/Pw8PDh4eH5+fllZWWdnZ3Q0NBfX1/Jycne3t5qamozMzOHh4e2traqqqpBQUFSUlK/v786OjpycnIiIiKfn59MTEwaGhoVFRVNTU1FRUX9/bFcAAAJ60lEQVR4nO1d63qiMBBtKmqtrJdqqba2im67ff8nXAFDbpNAIDgker7+KUJMjmEymVseHu644yawjOJ1csY6jpbYfekxov1ksyUCtpvJPsLuV+8Q7TZEi83uTliJxeRZz1SB58kCu5e9wO5PFVMF/uywe4qNaFCPqQJPt/w6RgZBBWNzq3TNUluqMqQz7H5jYNWEqgwr7J5fHfF3U64I+Y6xe39dPDWnKsMTdv+viOjYjitCjjcj6IdtqcowxB7FdTB2wRUhY+xxXAOvbrgi5BV7JN3j0xVXhHxij6VrbKs5qI8t9mi6hVOuAmfr4JYrQg7YI+oOX665IuQLe0xdwcocUxcD7FF1g2kXXBEyxR5XF3jrhitC3rBH1gHkMQ6Ho4H9HjEdDff/pGvYI3MP2ShaGA6ik42pZlxMokS6vMEcVxeQB0jW5Sd1dXomnORPEpQhdQdl6Nxn6zr+HV6OK9vLa4+mWyhag6gflQvl9uX9NN0n63Wy/xhN0nLSiSaGkdxaUPrDQpkosoFlQ7bvQ8CROk9WX2QrfaC80yQkF+xfZXSKx9QmCiRSmvvrsLPIWCuDI/s27S3V9tbVT3kCYP/cbgFT2zs46WgPAEws52QFM7UgY0Mrf8MMaDAQ84Mqjs84tWkR3GaG4Rx7h4aWtmkR9KW9u+ovKqCRkZ82LcL+bFf9xcQeHFkrwwrcYittpCfQxGC1ETGwKT8E4wPMVauVHlBKw3gP1X1chkm7RiHNLQRLDbgWHtu2Cvo+/F8Pwajt9nMAavXZQXdRAYqXQ/t2wSBL3/NXQJHlYJEHfwTfhRY4A1w0/AK063toLqRltdrqUEBbHt81LUi+O4lwhCwPvkt46C10Yx+AHI5OGkbDHCLLTdOQ0Jq7aRoJcXcvCxTH63c2AaQ5OPLEnICm/dYdoDXLUZTxDmja7+B4aEQdkuV3/qbiaCfOXAtQ0yM3TSMBUuB/u2vabxUeksKOVkPI9tPKZ4QO6F1xpGelwb2GYNCtm6bVYBPfg3FBD5+b+CCoZb9Vh67MWUEatEBHu5NMQdBn4XeUN2RIcZP6BloVPS9jAA3Jia38F2rYQbuYAHPmPtq3C07ZQ/t2UZFCg3Kw4QEVOCf2akSAg3JgKwUTWfzWSXWO9tZx63BojvehkuCoWk8tuDqZkw5jAs7MaSm14Jfb/2z8CTy1Wu3iwCjV1qE5PQAstNptEDVpin67K3JoyGrhtoLsDRkcdhoL2jTypkJex1UIqWG697ChjWCuLdPpveKQQUtWk5ph+hT+R/c9R4CpuJ/lLjE2lBzx21lBwe15j5PdSJRhPxauvkQnrXJ4bp6hYDFahb4gvUqbfR2TzRqM5GXwfRNNwZJ+X4oLS1mt/xzvDXpXlKX+ViGYxF+WLf91mUTg4EFz8/CxkqcM4ZRp4/PJLw4YwCioKYZVr6RwMBNLHHAh0YEoN52SWoerUCRWBsEIXCiPShCMdrx1qiMFshQWEHStQm7J5Xf02+BqrsLQsUrwhoIX9ZJRAa+UWr5HKcsQvK3Fi7gUhLxB6lS+h377VgHwRkC67vExtAZrIBTFy8N/o58CfltH7Q2zVaGebqYmJV5jGKU4dN/3q4NfEXkT/KzSCqhJXKUIaiWk4A1bdjqkkasgzFgqOJ+MXelaE1e+O1a14OoxWCVwGbgK+MwBTmOy8RzqufI9ac4IvlpffbOflqtwbA0ghFyudLgoVIZoPTKtiTfKlSYGiZjXR80jIZkaNND48+3JuolDLODDUazJchA+6AMWkKXYQBaowQe3edYCSNk1DB4gK3jRzuOjHVl+5xVaYynXRzaQJUcmf/mdN94EyY/AgCG4SiIrhAps9tg1ISswc7sFuNxNg6VldqeqwJTWgq+x3XkM1hxTG3EeVmOsqpYbwjZ+58c5QzKtiJ19m96mVL/jjjvuuMM7xB+r96czxqtpEkZx9o4wP8k5y/9WAQXjucQCKilHyMEy82j0/VzgUXhwebn6fKxnxVoe7e6/LrRB16yz09ft31VVBDeLkBcqf3BxIbW6Y3v/NbHUn/Q1km6pCEuoJKtexont/VcEWDPgAvo2lXSa5X74ZIkmPBGXW5jdyixEgifLdDg7DWfgMgToY/PoAj64KnSyYB/gBdRSx3m+qDqh0vcQPlkKQY/bw5YW8qXynFsBIvk5fjyBkyVG/n/u6MRZvn2kbNJwSXP00i2SxUv3H1kxKJc+lrpT2oVvkCw+StRUUJNOQBbAdoNkcWGP38Ybk1zGc/HqN0gWt8xVbQPjvfCW3h5Z3CbMdst6e2RxdZnMu745RXmlfPBnmX+Q77E1ZM0tBy+QtZymeYrQ9wa5hikXw2e8j4XMFFIrHqkmnex6vZnF8qvL5ZYl6CXC/cdI+CLUYsKsJ+YIa5YsMD7/1HBueDa1GFmCl5Bt1XOyWMWQUk6yXy0LB9Sn+mAeoMxS4Mx+dYEs9fxtgKz0tFoVf6vTiVGRk8X2A9ZkYVbYYp0we9btydKgNVmIQbusD6W5fTIW8J4L/h6RhXbMLWf2o4YWJac+L9PUJ7Kw6kYBtm6FrDwPqU9kYZnlF2oPekfW7yiOojWvQCAFLjUj6yE+gz36uIjzC9l9DsjKNE9G1pbKUq5SAlJCdUOycojjv8A5WUz9Yy5gpGPfuemuFfC4ZL2UTQ/FNq4PbjWk090VWa950MQFA/HmRmRxfe2SEgNYB+g+WnEiNiRL2O5IG+lGZHF9RTq4lXWgTA+JkzPWrPMNyTJtpJuRxapKIKmlbP8vqXpMQvSGLFYuEImstOyAZFRmNpnekMVsHUhkcXUaxFisHpLFZhZSlhTn3BFj/ntIFpNZWCdzM7LELvSQLObhdEmADbioEMFj0UOyWE9dEmADPiyE33NZkPXDPdYhWewanrGUI4uvsmChOthH0TCySgNCNVns58MrBiHWaBjHl/ofrOJaNVmcd7YeWUxUl6sK+z4dWcxdgOjiIRXQkcWKI34zraMeWZygLHZZMWeuEskim8s+LJWfQUFV7UIdWXzA4J9N+rrN7Bb1yOICLMhhMBBDDyWyzvhKxVuuyY4MU5ikgSylRnyWfF+PLOPvo5IlAbd+jT6w20SWYlzOXsZ6ZJnCo6vJwj1BxRAGbyBLOXGvPlnGyVxFFpKdlMHUeS1Z8tSyIMtERhVZ+OUz9CHLRbwyRJb8kAVZ0PcdflWy3tUDL3pReXIEpQ58U5WGkcXvt8UjZjIBn5b/CeWeVP+kfCzucUjXSJ6svXKkWF+OfIon4lELvyvWsxm1qA9ES86O/fSvmTqbDOh9os2pNMaz+JMTJykH2XyJ03RwRv5g8XWDrMkPJiOe+1UVYpFMT6vJ5LRL6qYaLuP9dNcslXOWfdlqtK989m0/Op27hC+t7rhDh/9+G3dkj6wn6AAAAABJRU5ErkJggg==;" vertex="1" parent="1">
          <mxGeometry x="533" y="520" width="103.58" height="58" as="geometry" />
        </mxCell>
        <mxCell id="4VljcWicfZ3Y40dabnpL-68" value="" style="rounded=1;whiteSpace=wrap;html=1;flipH=1;" vertex="1" parent="1">
          <mxGeometry x="766.65" y="301" width="382" height="209" as="geometry" />
        </mxCell>
        <mxCell id="4VljcWicfZ3Y40dabnpL-69" value="" style="shape=image;verticalLabelPosition=bottom;labelBackgroundColor=default;verticalAlign=top;aspect=fixed;imageAspect=0;image=https://www.vectorlogo.zone/logos/nodejs/nodejs-ar21.png;" vertex="1" parent="1">
          <mxGeometry x="820.36" y="326.68" width="144.64" height="72.32" as="geometry" />
        </mxCell>
        <mxCell id="4VljcWicfZ3Y40dabnpL-70" value="" style="shape=image;verticalLabelPosition=bottom;labelBackgroundColor=default;verticalAlign=top;aspect=fixed;imageAspect=0;image=https://expressjs.com/images/express-facebook-share.png;" vertex="1" parent="1">
          <mxGeometry x="804" y="415.8400000000001" width="122.83" height="44.33" as="geometry" />
        </mxCell>
        <mxCell id="4VljcWicfZ3Y40dabnpL-71" value="" style="shape=image;verticalLabelPosition=bottom;labelBackgroundColor=default;verticalAlign=top;aspect=fixed;imageAspect=0;image=data:image/png,iVBORw0KGgoAAAANSUhEUgAAAT0AAACfCAMAAAC85v7+AAABR1BMVEUAAAD///9zc3MA8ub7AVvWOv8AufHQ0NATExPw8PCFhYVubm729vaYmJgkJCRGRkZiYmKSkpLY2Njp6ekaGhqHh4cA+OwICAjcPP8AwPoAnpaXATczMzMkAA3xAVcPDw+7M98Aqt6kADy8vLx7e3sAIiDlAVNXV1cAu7IAg6uZKbfMN/Ourq4AExkAmMcAkYo9PT0AKykA3dJQAB0AU09yACksABAUAAcAW1YAM0IlCiwSBRZOFV1iGnUAYX+qLsvJAUkARFkAICoAd5sAUGgaBx8AXXkAqqGFJJ4AGB87ABUAFRQAaGKJADIAPDphACMAf3gA08jUAU10AB16kI+7k5xV2tHXNGs4D0OOACgAOks1AAArCzN3II5kHYGuL89tFWlHE1WBIJiDNq8wb68aUXOjJrDCADkAqp62AEEoODWrIEjhaImW5230AAAJPklEQVR4nO2d+0MaOR7Ag7xKAVGQYUBFHvKmoKj1UXko1GKr6+Pu9ly36tp93PVu//+fdybzSmYyGrE4lP1+fpLMQDKfJt9kMskUzQCjgwAAAAAAAAAAAAAAAAAAAAAAAAAAAAAAAAAAAAAAAAAAAAAAeIS1maDOktOF+e6IhwIaMdjI8FTmXTqhVacL890B9p5DHOw9ifXyCfGJtPeaSD/9+tLl+i44aQmtH4yPrwl7cSP5LO0pbrx84SacQkoQ3EK5oCew7S1fejye9OKyE0WcXDbLglumqaew7X31YHofnSjkpHLecqtsaklMe1seleKWMwWdQApqxZMQ3Ak1kWVvo+jRyb11qriTxeaFLk/SV1b1Mewt9zwElxD8ZHZabhI19DHs5Uh5njTYw5wLpL2WEvqs9jYoeR6IfCofSH3CxbqcZrH3Nk3JW3S2yBPEpwtK3wc5zWxv+yslrwedhg4d+oRzZLV3Sgc9uN8gaFIdhxz64rS9DbrdQtCjKJtDH133touUvJzTxZ0w1luUvhRaNey55hEd9C4h6Jk4oYYt7h3K3j/ooHc2Yh6JVzKWZJyaYJxvi/kbyg/b8qTfHo0UPer7J2HvX3S7HXmwEnSFQiHXnCl1FqfOW85eikelA6FwyeI7gr9BzDquBkIPEDPn+C3YPTgkPxbKVOX7MaDLi/2bkkdPj+7tX3HnGMQ/Z7UnEzalRup6/lHz3HYEJxOzjqsh1wMExmAvUfE1+oM3RsImNWxJGSWa+YmUVyTu0N61h11vlTvLJ9gLxsjrr89SBxV7ZN170N446t5u1ufzZRuVXT2FCn0plFczz6NFMugZg5X9aqbm9Xoz73mz5LcXNOmor5BHJ8DeIOlTyPavj5Uk8o4thZDyz+9fouypQW9vv+pVqbV5s+S2F7EYqFsPO2qv4tNIJrP9I7kKFog7NsleRC5TrIRIe71t6byrdrUmipo9ccibJbc9P04KRfPhul8VUyIOW+xF4vM6cfyFGJkyhrUQPpKkr1HpHJJ3bJI9FHa5cF9o2Ev/jD7fVDNeXZ1Md48zS157ykg9FMZXvRpVmgBx3GKPImA+fQwcJH1mso2B/GzIsLfgl4IeIu1t3d6Z1MlNd58zT157fiolougjOg7n7TUs8nAVHKRaLbeg2kNLSiEUe+nLn36xmMNN9wtnnpz2FF3G9StRjRigOG7vTZZlT6p/0sglVW4JQoo4WbJX7OU20FWG4U7udTkz5bQ3EzCdhruvvPHZcXsDtjxfsiIdLOw0y6S9097imdRbvK+y5XnFz3yZctpT6hoR6rG9qPHZcXsVa9hTOcLHC+vEycvKAPnWRp5XvOHLlNNeGCcsGAmTZu+wYtNypbZ7YPOde1bMk915a12+XKfFHnpzUGlkmfUv2XjD/MYeO+iJte7wG/e5k29P4nDQafgYApN95umsoCd6uzf73DdqU2VP4ni3w2rBA8apN6y+9uYzvzo0dfZkDjuNLFkFs9n+LuO0e2VKQK90mcztu6dmNYX2JK77FSUGSjdsfbtOA223q108WhbFTPWGf1bPYDrtSZ3I9VFF6i869ISphc/tLxmxVm3fj5bLtNqT2Lv99Wr70bM+Hfz2+/GoWUypvb39W6lRSi1y2H7otmF30M8mk0lfpXPNHtU8wlTa2x92a6LWG9xV2+x+9Pioog9wktmKfXy0Z/rsXcl9KXUXUcsw5kwSfapjlv7ONph980NMl729+2HNa0GssYYiB6yBYbZz/ZQgOEX2rtrDjMi8dWXfeB0xb+uSjf7g4X6aYFrsvWubp9cN7B5T2EzLyJP6R3y5To29ro06r3hn95Ti2HZaJtngy3Va7KGhjTxvBt9EvN0gF+j9sINn+65t7bFujBmMai86afbuGd0FrnpthJa3Fi+pRWZN4aJ5UkCoY6ePc/THtvcKyyEe2Frs4UUZUWM5i2UlBsVL9Bo2s3VVdPa1l9aX6ClX2hQEoVX+sEk8A6aocOaJd62GSqbUFfwILa8/M1vBsgLE2h+sMxbRP+P1XaGgTS4vYW/ICHyi949cMU0scFwN4SI35YdsgrvVSlWSrAlBzk4D4ecVfsuz6TBdJUv4NOIhECq56NqpxMEIYvMS9t5bnspmqvfoP9Ty0EjMFZCvtak95BX+iw6sc/rZa64cZ+nHtAZKgw6oNtaUBSDUbn6com0bWVAW2OTNP6PxIuM9MvCJNekG7R215EKyl5CLmV8g7Lnd5wgdErdsuOpVOMJeYkldE8BYVKJqjcXXEitrrxV50TXyDKV2uuqlV2g2qC7TsGu4L2NPb7qiePdFmRwgl3bntDLHKXvKXpjDQb9htGH2TD5NPqquR6kzDmqLeKJ+v6LYZVoMqdZHV0w6QV1XaFv1Xsae9ogsc3OlTQuQ6+Jz2kImKcoT9vQtvMe7/ewTGq62ljLKPKrWLQOzm5mA6YTAI1mN297enejN3A2JGSlqaXfufzG9oE1yGyDxmHy3L0/qcw2V1auPWlctY+q0G+u1r9L6YmuMHyGzGvsswU13SM0R0/tZ/p/Xi1pvUuvpybcXoIN+o8OTmXLxddu1YGFirWiIXuuoEIwS8vJ2/a2e1djtvafn8Tbopd1/ElfzI2WvVaC+d8w1yyJfkn9uwf6Ekl798nMMeVLsC+utPzjLOkEjZB8hxgZ+4wCxypHYcRAK03thyiP8fL0eXHpk4f/s3Hw+H56zN7NSitfz9Zk1plwiq7yEdVw0VujNt8Vtar8GvReGeHsBgNmi5KW3THuF6L0wrR2niztZfKTbbY7aIykPvugtvC2nyztR0G8c8PSQxd7680Pf1LJIyUvLb1sx2TO/veDc6SJPDmeMzbdme+jcTbXdzYd/8m8EPdJT9qFZ7Jm28JY/OVniyWHbFPSUzbdWe8i8hReQ2KLarbb5lmHP9PYCqHwyH6k+41RNZdhDKcKduwn2FIheQ998y7L3SQ99wgUMmHWWtcmpov7GAZY9VFBCn+D+4Ew5J5XTNBn0kI09dKIMV2C0Z+Ls0kO9KYRtT357gVCGsZ4FqfX2iI829qQ7NphhYXJKLry1sYd2oOJxYGcP4AHsPQew9xyCUb8O/B8HTyZh4HRRAAAAAAAAAAAAAAAAAAAAAAAAAAAAAAAAAAAAAAAAAAAAAAB4JjPA6PwFrwYKULRTyfoAAAAASUVORK5CYII=;" vertex="1" parent="1">
          <mxGeometry x="948" y="423.92" width="72.28" height="36.25" as="geometry" />
        </mxCell>
        <mxCell id="4VljcWicfZ3Y40dabnpL-72" value="" style="shape=image;verticalLabelPosition=bottom;labelBackgroundColor=default;verticalAlign=top;aspect=fixed;imageAspect=0;image=data:image/png,iVBORw0KGgoAAAANSUhEUgAAAcgAAABuCAMAAACUTXOfAAABU1BMVEX///8AAADPIaHHH52IEee9HZrVIqNCle3gJKe6urqaFuF+DuvaI6WOE+ViBfR7DexAoey0G5eVFeNBm+1wCu9DkO5Gg++iGd5He/A+p+tIdvFEje5AnuxFh+/TAJ4+qus9sOrqJ6vd3d1gYGCZmZlWAvjt7e2BgYHR0dGkpKSrHNviAKPz9f5Kb/Jqamrb5vvGH6z61+zkb7374fHwxuLxstrJ4fnfUrLPuPjwvN1KSkrhyfaq0/Xz6vzk0/nI1focHBw0YPHkO67u3/nOOqeWwfQ3NzdgrO6vx/dtmvLyo9XQqvKDs/NtkfOjUOiCKOi9ofcpKSnCk/B5wfCthPSuZ+rAgOqzPN50pfLmgcTFcuSkevTaicOfQeeSsPU3u+mSa/WQpvXIb7S+WeCJXveHTfNpYupwj9SIcMiGc+7TkulTTe2vMqKeYLyFfu2CfcioTq4mv9iyAAAS3ElEQVR4nO2d61/ayBrHqaXiDeEgIAKi9YbWqEdR8V4r9VJo1Xpr3dZut7vupWf3nPP/vzpJ5nkmM5PbAIFkPye/j29CQkjydZ6Z5zKTSKQtfXhBVCOb30d1DXwnm7vxgYfbq932fiJUF9QAjgBuf0CFqGoUdqfi8XhU1e2Bb1cYSkYKcHwB2+cDOscUcLuKE0Wjg/9WfLvIUO76gWAcBeO5NaArdUc296OAMRq9KMaO/bvMUC46AI4/wzbhOBCHzfMocoxmiiOxol+XGcpNBOPoAJjNO+DYIJtbUcQY/TU5MjISi4XmNZhqAEcY6dRSul1NYYOMIsboxVhRBxnz7VJDOUgZ1TCOjuJI5yGlc0SQd1HUYCZJQGbe+naxoez18wviM8IQtZHSMaZSUX3oUzM4/pEsFvUGGSts+nnBoSy1C77/LdlUUiDVoDYUtYNEjIMXkVMEmSn4e82hLPQCQOJIBzESv3GQckzUIsoIgIwVQickaMJgHAxRD+IUIx3jaBgHE1fq3r0RAJkZX/H1qkOJ0oJxGkcMxo0aHFmMg4kLfTe2yEwmHLkGSx90jDQY14gTjNEoh1E3rJpWYghy/MzHqw4l6o5ExzEYp6BNvW1cXnAcf4UvnMYAZGE8DAsERw3IcqRg+xY46h3m7SDFmBicOIVDKMjCR3+uOZRZDZLkGEjBSGcXouPn+paSGESOicxEElzHPQoy+9Knyw4l6DsEx1MP8AF0j4P7ZDOBGBO/To6NJeEgwlEFWRj346JDiVLOBzDLAWUBVyQ6PnhFNg8SgDGRUDmOJcF1PDVAhpG6AAib40AqzqQd9fENHPGYAIzpzIQGskhcR6ZF5kJn0mfVrihGI8txDsNUzC6nE8Dxj0kdpE5SOWVAjoeROv+k1Bp3owMsRzrSIRwh5hpJIMdE5HpMB5kcSSZx0EpAZkNnshuq/aDqZ1UfdOk5R056FOccjgb/PwHu4Q1pkOl0+iASAZBFSEdSkOO50JnsgrDEEQoAUCzGVBxdyCsSHh+8JJu1NGBMf1K3NpM2ILNv/Lq5/yN9f2EJksWocoQmtQ8cL+DLj2mCMZ3WN085kBkDZC50JjutmhNGaI5RtKuRx0GSq4KYqzrSIRjT5AMlaYDMfDz+WECQ2azs9fS3pPmpOcnzz/f3T8k/naY1N9XM2eel7kzu1j64Y0xt4cE3JByX+ATbadS/4IO9JILMaD7HZgFB5r5IXc3Mkza0U16Ydz793DQ5six1MU1rflk/++GC3OFT0nd2OF12+/f7bocRk8bxO2MKQGOQRFUTsH1DQU5OwkfYImN7+ubLcWyReRlncr4djkBzxv6O+43DOtEqd+jZT6SOb/bWlvvtz1V7oQ1U1RGrNnK9U4WtMX7b2Nrd3T1gh5tbGFQFT6RGOWYmJwm4yEoRQELM9Q2CzMlE6srtg3xi3yK4FuDSdlsQ98wljpdvkIaaMCVXKbZYldsD0fGEMdJBw/rjJG2Sx0UCEiJ1ShZAZvMSzqQ3IO1ueIc7xOs2ecidXaJfa838zEhf0INmV0dNHyvnyDFNRzqGYVV1DQcWoY+Etnw2DiBzeXdn0jOQT55YtErhCNnhkZxO+JM7WEFUq/2I7H+gXlZ1K356mcAkRxr3GYZVa5CTY2BMN4tk1Ip5SGyRuZy7M+khyCc7prOLR3hJclo4twTIuVbvTHIsRcpxuI/2rxJGrioNDesTYBz+qnOcnJiAo0/B/QCwK1kEmXd1Jr0E+eRQPLvpCLkHIqNl8dQSIAVj3ISkesqruF5W9QDJxkht6+aCwZhIYx3dMHAcjuwBSBjv6NWQzIyBL1kAmcu7/binIE1jR9MBhzIPREbm65YB2XKTFNqksqtrq6Hr+/erK3XUOkA4xqPR+Ojj48UgI8LxF/j2BTZI1Tv5kYAcg7aqVUNqIDEPmc0iyJ+aeCBNBQQWZsrLJ6b7FQYG7qhb1IL5zDIg1YGr+30t75hPLvSTH8yRuHjcXK3KYtRyHESX2CC/qhsKATkxCTvJZKxYAVzHlzkAmVtycSZZkC30YFMLAkx+t8UDMXekLajf4sRyIOU0N19+L5z+PbO7YRnHsSo6phgTaewglWGwq8P65h4BOYbOZIzEWtG4fkSQ+ZzzJbcJUtXUif3jtPrXnm7pVzhZjj69BKlpToh5GW4wlBw3h/ECPYhHwDgL0TsCcgILdo5hEg+4jkoOQS45O5Ptg+S9Rd62Wj1wKdfdUdZ+vdcgI0JHbIx3PliFVZ0xpi/xy5phHdaEPebmhA5yDJ3JGEziQWcyByDzS47OpBcgpyxvV5PlE2837mozYukASM6E0969MWCJ0YIgeouPRrBnFznO0o+uCUishtyECgF0Jt8hyPw7p0v1AiTLSwZkE7ESl1/rNEgu6AAf7RvWFNphKjU6+vDwcH5+fqvp06dPNzc3V5ouLy8bW+yCK6rnMUw40rRIRJnQQdJqSKjZGQfXcSWPIJecnElfQMo62JYSRyEdBcl4q4fw0b4qRVUrp9saBs3+wny6ByDRmcxAfTLs/pIDkPklh1P7A7KNp252eboE0gPH6WaYguT+DyYJyCI6kxkCEp1JA6SDM9k1kIJz1upj5wNzJx6c0VFegtxNGxy3uD3KmA4yibM/RmDGADqTeQCZf2XvTHYN5LIwRmktqcUH5pZZP6TTINt0gLcuhoctDaumvTEdZBGNa0EHSY3rOwS5ZB+p6x5I0ftrJanFB+Z2uFFlp0G24TXVtr4OM5qdNXWwBGRyBHYcQ+0VOpN5AJl/ZetMdhGkGI9p/uf4wNz7SOdBMh0Cf2facEcd9dRqtQNVeuBVVaPRUAeq2nhVHbeqo9evX7/+8pge5jUrGFZNe1DWCsZVKZAWiUWtP+UB5NIru0FWN0GKEdJmf0/4R4h0HiTbHWg+061dOJVx/UUND6d5jLOP5h9SCMjkCDiTb/UiusI45CEVCnLJzpnsKkgxZ9HcrwimWbvaDoOcO+TPf5Di43FCHMeOpsDRbFgjRlkrLEO3AiBxEs+7PIK0G+94AZL9v3UGKQxW3ludzU5CYE7vYjsKUgi2qk/n55RlWLU5jLMWNT26bSVFdNAkASTWmZ8ZIG1cEC9Aso+Td/VNIEX3Qf5HhEFvv+mXvQU5tSBUICxr8/+lwqrOGK0Ma4SpT4Ze8iMBiVM/VpYQ5NIr6wv2AuSh7eM0gxQcevkxPf9Y4f+laZBzU1PzzurvX7BKtGoPZ8si5dgsRmvDqgpAFiF/dVwocLOxGJDWttUDkNy/Lr/LAqRQbiGb1OIDc2jA5UHOL5Sn7YJ7MtLOfhdvs3O0NawRbToWgCSgXyJIKDPPGiCtI65tg5znHo/AxQqkYCPl3LMT6+/IgTRniZuWHuY/j7fXOdobVlUTCJI0OAoSOsl3BkhrV7I9kPMzghES4jWWwASSMkktvr8y7LEEyCkvqpJIuiYlwc+MjpdtrF0epPVUEPY2yzPSKpfLVqUtYvOy3iWMP92TWvxYlxkhuYKcsqy/aVbw7/lPOT37h4Ns7zHJm9YzBAlpyWwzLbJ9iWdndrGMBY/QLall7326gTTVTLYiajJ6h4Z6UT2Mngp6ZsgE8pvNPeKotThCtt8Kg518M31k2zLZZmYf11iFGI3zOMUhHuQMspWpHiaVjd+rGhw5kg4gzShXrW9yE/1ImPgRw5nnxNIqTY1a25SFU8js5a2ubWGTWQL0Kbt9JpAeTDTjZ2PdDzFNsmWS1neJAQGwrArMc81CAuSMaZHWJ/AOpFVXxz4Tx9+1T4UIOHjkTiDbbI/T5X7RwGyUWJI9DiifOaD8bHmbEDTHeMAZgMR550yIzmYaiFcgly2HvOwBwi6h+7IjKeAQaDmBtJgesLNcLs8suMh+MraigRxq277uW5x6E0HCqDZGQGZp0NwAaVO44w3IGRvPxQGkMOXOxvcRXBWx1TuAFHrW6QUPJvWtDQ15gLJqceYJWGYHMsubQhrriwHSLrXcPkinCctOIMXqG7cTPLFwOR1Acg2y3HJih1NlcciE0mH4akdy23TiTVhmh9Z6kMRy1kgsI0i7BtkWyJNlt3n2jiAF43do8X0+ImMO59mD7Mxc6XtKkqXZNErTeceMFcw0vYTVWbA7fJOjIG3Lr1iQ81PSklz3whmkYDfNo94dl/0OINk97ZXRclrjVOX1mpGG8bUdStGZvEaQYEkzZL2kLGy+pJUeS/YFkZ4klm3lDFIkKaZC+MDcocUJ7EGyXWQnF4dxk1LZ+GZGyTuTm3oRnQaSJCNPycJXdE1zrIbM520Nq88gRd+Ct52C1be6OnuQMy7f7KpWv4kkud2kPlkftWq29ThDQGZg908U5JLDDHR/QYrePnuQEDOwvLi/CchIZH+NR8k6k9cMyJHTU1wckqtqBZAOv+AzSNFLKNvtsB6v/G1ARiLrvH01nMmVCQaksaYgfRMPncPjZFj9Byk2PKuUsYkS1d8IZER5zaI0nEkyPdK8yifs/pKjc3gcl/bwHaQY4iGpEMn8iC8g6xuMthmtc1pVVeHSj1WWJDqTewAyeXo9VjRA4guVVuj0SEfDGgSQ4jorGhAhMGebe/YF5NqioZKTdK+yWjdgMiSfwXhHwQnLGrg9XNQjVmBXg4B5rs4rtAQApHnlI+lqEH9M62IflSk4YBUfuKcoWaeSOJOwFgQsmXRMl2uFL3wxQDpOcw0GSHHKYz8f8nGotPMH5DZDUg7lOnyzwgYINGdyD1ZngXnnuDoLvgZ0hS7q4WJYAwLScdVGpypmnwY71b6+JlHW4ZufWZKwOIsGEnZji0TDWsjS1Vnclr4KBkinhYycvucTSGXxebMkN+CrbNTucwRXMIMGiAtfoWE9Mxa+cjGsQQHpkAV2vCg5kNPta5kfN9cXRZUA5RAd6vTyKCvkm6sMyadnkwTkJJxWWIpOoUvRSSwPGRCQtnUZznFSOZCe6NDxQpQ6yYuUqusVRVEqq+v1tV513MqghCO/MWmRP0mLpOuXgfuByaw3dHFIiQVbgwLScjEr13kAXQTpVutX19sklzSu1HsMlD338CmT4Hr6H50kXVFQWK41S0G6GtYAgbRaXs61ULKbIN1uQGuSpXXhw3UDJRrXbSZX+VRvkXDsaZFd0pxZQFlm3d0AgbTIcbsWoQcIpKL6JGaQWktFkq/hk6pB8ul/f5ycoIaVhOjQsH4sNLMSdpBAmsqJ3b8il4/sCsh73bm0qMepIMgSjFwVpoKg5zc0rBF4W0QMs8n0JQMyhpW/YZnjmxNz8uaneEhM1GIHu/aFkt5IrDOorK5WqFbXSJBgsbqqghAsYRUaZQm262wxyCR8eE1AomGN0Nd+ZGUMK+fBdeDVHIyBk2ru3EwUmS8Y0b1DYY/nIMUbqPD+BzqVEICt3jNW9jW4ImuwzZb1QGZyM0lA4jpmH433t0i+rw7fsHLoYWWLISR5IlluMYcoZeve0Byb6mrnPJn3QbVjvoH64nMqc6hHhVmnhwLIEpR4rLIkyRiIrAVB61pxMpYKUsqwdkPN9rxzzb6Cybd049Hz504oVZY0xlqCWA9srzEg9W71Ghb1oIY1gyDD1w52XpVFW5KIEhtlvaSH7UpY4sE2SXUMtAJ5ZTSsbylIWcMaqh3dP+flQBICsCVwJjdKDEmFFppDNhkLzY1JPKE6K1PIlRn1QFcJ1nW1RILp6Ey+ZmqZ14Sl6CLwGtBC+D7XbqmySrWu/q2vb9fvqwZMnSQcukZIojNZYcrSS7+RxSHpsuYZWFMwfMOyv1q97zNQ9oHPoUCTLEEb+8zOMCDLtWKZTiGGIEPD6re2DZToc2wASXQmmWRlz18aSKx/HIkhyJzMiyNDdVZ12lkOwScwcx17zY2SQVI1rnRJ8+MYghwPDWsQVKGxHhi5VqBJ9uImk3Z+NoEvGdBXNOfX3Q3ls6rQKBehrLxe0ttkiWQmt9m0c+l3+g7JGILMhoY1KEKSmBOBuh7duCo9rJ72YDIrRkG+tTttqK7rCJok+ByrsJpEaa2ueiPcahIQUFfIe3hizGSsUAGQgsYVtu9LpFEOYXfJkNTHQKd06sd4aFiDpA1IU6LPscjXTXK1dhFSoAwNMjSswVKVBGAXwZncxkUIdIzV7fV7Y8jzOaKMmCZjhQqIlEWIpcN2tY+SJKPXbaNRVk5Nk7FCBUZ1QhKdSbXXxLp0iMKu0a7yWZKCDA1r8HREElyL4F/UKUkASYKwGsje35PCZKxQAdIqST9TZ/KIZrhgrisEYbVSEG3uhzYZK0xeBVFrJOtMnclFmnaGA6q4RmHvn0l9Dk/YQQZTUBGCziSpnNSaJMwioEHYnqHfiyrIsD0GVBuEpOFMYq5yEQo/PiPJ3t6RWDjOCa6q0CSpM4kJriM4oBdDBKW/QrMaYClYbgfbdMYz9pvrJb0QtrRms1B2qICo/vxI03N0JvuOQH3QH94fVe/rIcXu6H+Kf1arKO7WiAAAAABJRU5ErkJggg==;" vertex="1" parent="1">
          <mxGeometry x="1046" y="433.9700000000001" width="66.99" height="16.16" as="geometry" />
        </mxCell>
        <mxCell id="4VljcWicfZ3Y40dabnpL-73" value="" style="shape=image;verticalLabelPosition=bottom;labelBackgroundColor=default;verticalAlign=top;aspect=fixed;imageAspect=0;image=https://images.velog.io/images/broccoliindb/post/29bf970e-e56d-4748-94af-f79a9d2b97e3/sequelize.png;" vertex="1" parent="1">
          <mxGeometry x="998.47" y="343.00000000000006" width="105.05" height="43.84" as="geometry" />
        </mxCell>
      </root>
    </mxGraphModel>
  </diagram>
</mxfile>
